<?xml version="1.0" encoding="UTF-8" standalone="no"?>
<!-- Created with Inkscape (http://www.inkscape.org/) -->

<svg
   xmlns:dc="http://purl.org/dc/elements/1.1/"
   xmlns:cc="http://creativecommons.org/ns#"
   xmlns:rdf="http://www.w3.org/1999/02/22-rdf-syntax-ns#"
   xmlns:svg="http://www.w3.org/2000/svg"
   xmlns="http://www.w3.org/2000/svg"
   version="1.1"
   width="266.45941"
   height="338.9136"
   id="svg3039">
  <metadata
     id="metadata3045">
    <rdf:RDF>
      <cc:Work
         rdf:about="">
        <dc:format>image/svg+xml</dc:format>
        <dc:type
           rdf:resource="http://purl.org/dc/dcmitype/StillImage" />
        <dc:title></dc:title>
      </cc:Work>
    </rdf:RDF>
  </metadata>
  <defs
     id="defs3043" />
  <path
     d="m 257.31384,336.14103 c 3.36356,-1.52513 5.94753,-3.54991 7.25626,-5.68594 2.01461,-3.28811 2.03026,-4.26901 1.77626,-111.31734 l -0.25626,-108 -2.89385,-5.22229 c -1.59282,-2.87444 -6.84522,-9.003894 -11.68286,-13.633684 -6.99705,-6.696415 -8.93132,-9.169931 -9.48697,-12.131789 -0.38387,-2.04622 -0.49417,-18.298564 -0.24511,-36.11632 0.24906,-17.817757 0.0829,-32.395921 -0.36919,-32.395921 -0.45211,0 -0.82202,-1.564626 -0.82202,-3.4769475 0,-4.274508 -2.1907,-5.872932 -10.29515,-7.51174596 -6.14908,-1.243418 -11.98414,-0.702055 -17.6698,1.63936196 -4.08123,1.680691 -4.99907,2.887356 -5.01974,6.599331 -0.008,1.5125005 -0.46531,2.7500005 -1.01531,2.7500005 -1.3069,0 -1.3069,11.692293 0,12.5 1.13236,0.699834 1.42281,50.13597 0.32676,55.616199 -0.49654,2.482715 -3.19145,5.861856 -10.26797,12.875001 -5.27711,5.22984 -10.48665,11.308804 -11.57676,13.508804 -1.90809,3.85078 -1.99212,6.50872 -2.25256,71.25 -0.15583,38.73725 -0.65023,67.25 -1.1661,67.25 -0.49256,0 -3.37149,-2.73599 -6.39762,-6.07997 -21.27502,-23.50966 -25.01792,-64.88111 -9.80045,-108.32737 2.13693,-6.10096 7.81431,-22.23607 12.61641,-35.855804 8.31024,-23.569515 8.65519,-24.878972 7.15652,-27.166242 -4.2584,-6.499143 -24.32279,-9.148175 -62.41796,-8.240831 -26.885459,0.640353 -33.130409,1.401565 -40.054426,4.882321 -7.48297,3.761745 -7.48407,3.459754 0.0934,25.567432 3.7176,10.846254 6.755097,20.008424 6.749997,20.360384 -0.005,0.35196 -9.796777,0.81779 -21.759277,1.03518 -23.91347,0.43458 -27.03249,1.10337 -28.34995,6.07892 -0.40108,1.51471 -1.30301,15.32975 -2.00429,30.70009 -1.44353,31.63868 -0.76639,41.97478 3.67922,56.16076 5.388,17.19315 13.60116,28.76618 27.2412,38.38513 3.89961,2.75 6.96512,5.45 6.81224,6 -0.74768,2.68998 -21.36112,12.04446 -37.62842,17.07596 -36.5415896,11.30237 -48.033049,34.34752 -27.4107,54.96986 5.59183,5.59183 13.69818,10.78771 23.79047,15.24884 l 6.12023,2.70534 82.999996,0.5 c 45.65,0.275 93.35,0.35867 106,0.18593 21.6976,-0.29628 23.2958,-0.44819 28.22374,-2.68265 z M 35.400854,331.25617 c -10.8363,-4.73119 -15.95181,-7.91163 -21.64583,-13.45778 -19.4466193,-18.9416 -8.9264196,-38.27552 26.75489,-49.1699 12.11889,-3.7002 25.08293,-9.19847 33.53991,-14.22486 3.27785,-1.94819 6.50538,-3.33276 7.1723,-3.07684 0.66692,0.25591 1.92254,2.23968 2.79028,4.40837 1.3026,3.25552 1.5777,8.7204 1.5777,31.34104 0,15.06889 -0.2805,28.12895 -0.62334,29.02236 -0.34283,0.89341 -2.25533,2.44306 -4.25,3.44366 -5.01713,2.51678 -18.70032,6.82731 -24.12666,7.60046 -7.00511,0.9981 -7.91756,1.43496 -9.53665,4.56594 -0.83309,1.61102 -2.06566,2.92364 -2.73903,2.91692 -0.67338,-0.007 -4.68448,-1.52293 -8.91357,-3.36937 z m 14.18925,2.50402 c 0,-1.74158 2.98174,-3.29132 7.19879,-3.74152 5.81363,-0.62065 13.83882,-2.95158 22.45132,-6.52103 5.47962,-2.27102 7.42027,-3.61558 8.30647,-5.75506 0.81098,-1.95789 1.06483,-11.57483 0.84989,-32.19827 -0.28492,-27.33873 -0.45065,-29.68784 -2.35677,-33.40656 l -2.05029,-4 6.637707,-7.17722 c 23.891369,-25.83321 26.626069,-73.23032 7.04957,-122.18114 l -2.14293,-5.35836 18.778119,0.49109 c 10.32797,0.27011 19.75431,0.81185 20.94742,1.20389 2.734,0.89835 2.94945,2.5839 4.43033,34.65982 1.32126,28.61848 0.44951,40.00918 -4.16038,54.36192 -5.37217,16.72603 -13.2061,26.9684 -29.06452,38 -4.74389,3.3 -9.375669,6.45 -10.292829,7 -3.83551,2.30006 -4.49221,7.75614 -4.53801,37.70295 -0.0294,19.22113 0.32774,29.51858 1.08108,31.17199 1.78292,3.91308 18.140319,10.48303 29.875029,11.9993 4.68666,0.60558 6.7352,1.49333 7.3913,3.20308 0.46654,1.2158 -5.33892,1.42268 -39.922679,1.42268 -22.548037,0 -40.468617,-0.3886 -40.468617,-0.87756 z m 82.499996,-2.4886 c -2.54131,-2.84234 -3.91738,-3.46702 -9,-4.08559 -7.59432,-0.92425 -24.443709,-7.05722 -26.749999,-9.73667 -1.57681,-1.83194 -1.75,-4.81093 -1.75,-30.10137 0,-19.73227 0.36605,-29.08051 1.23254,-31.47676 0.93872,-2.59597 3.49531,-4.98615 10.724359,-10.02629 5.22049,-3.63976 11.25784,-8.21286 13.41633,-10.16245 5.91671,-5.34409 13.21812,-16.36066 16.51147,-24.91299 5.4514,-14.15646 6.5393,-21.5323 6.43546,-43.63172 -0.1178,-25.06776 -1.94021,-51.5361 -3.66785,-53.27096 -2.07661,-2.08531 -12.19088,-3.2171 -28.80448,-3.22325 l -15.652179,-0.006 -1.00164,-2.75 C 84.302444,81.855514 80.674244,70.241075 81.654784,69.059603 c 3.34415,-4.029455 22.185906,-6.439629 49.935316,-6.387556 27.58381,0.05176 46.78196,2.447564 49.72534,6.205392 0.6891,0.87977 -1.57896,8.503871 -7.51451,25.260097 -14.62284,41.280724 -16.99947,48.701064 -19.05701,59.500004 -2.82645,14.83448 -3.5281,26.88762 -2.23315,38.36146 1.62628,14.40957 3.69067,21.89205 9.22507,33.43674 4.20581,8.77328 6.11535,11.46567 12.89555,18.18238 l 7.95871,7.88419 0.004,38.31761 c 0.004,36.4351 0.10109,38.47729 1.9853,41.56762 l 1.98156,3.25 -25.7353,-0.005 -25.7353,-0.005 -3,-3.35537 z m 62.29462,1.77926 c -8.06112,-2.47998 -7.79462,-1.01944 -7.79462,-42.71894 0,-20.27345 0.3375,-36.68727 0.75,-36.47514 11.1596,5.73887 24.44293,11.40634 34.62295,14.77226 25.12661,8.30786 36.53901,17.90755 36.60509,30.79084 0.031,6.03875 -2.08044,10.38852 -8.16612,16.82323 -5.83339,6.16795 -15.0348,12.06303 -24.8054,15.89209 -5.37746,2.10741 -7.97425,2.49156 -16.44613,2.43291 -5.74234,-0.0398 -12.08,-0.69098 -14.76577,-1.51725 z m 43.38947,-2.03666 c 8.52597,-4.54812 18.10229,-13.20392 21.86384,-19.76221 l 2.9333,-5.11423 0.009,10.32692 c 0.009,10.00777 -0.078,10.41435 -2.81942,13.15573 -3.73762,3.73762 -8.76533,5.01116 -19.6712,4.98278 l -9,-0.0234 6.68409,-3.56557 z m 22.40997,-42.16413 c -4.37882,-9.71905 -16.20761,-17.32002 -38.59406,-24.79984 -7.975,-2.66463 -19,-7.11778 -24.5,-9.89589 l -10,-5.0511 -0.25695,-68.25896 c -0.30062,-79.86102 -1.62712,-71.29038 13.26497,-85.706524 7.09805,-6.871196 9.55539,-9.946135 10.38898,-13 1.63307,-5.98278 1.50147,-62.189028 -0.147,-62.786013 -1,-0.362144 -1,-0.876097 0,-2.569765 0.6875,-1.164396 1.25,-3.888292 1.25,-6.053101 0,-3.6544165 0.26829,-4.0274525 3.75,-5.2140345 4.76377,-1.623515 14.13868,-1.580052 18.15648,0.08418 2.59824,1.076228 3.09352,1.824482 3.09352,4.6736275 0,1.865737 0.5409,4.258372 1.20201,5.316968 0.94229,1.508844 0.92736,2.437902 -0.0691,4.299794 -0.96751,1.807822 -1.19489,9.405611 -0.952,31.811712 0.37248,34.36208 -0.29556,31.918405 11.9384,43.670392 4.44661,4.27143 9.27633,9.791244 10.73272,12.266244 l 2.64797,4.5 0.27348,69.5 c 0.15041,38.225 0.15041,78.9371 0,90.47134 l -0.27348,20.97133 z M 69.413564,239.19313 c -10.25557,-7.59823 -15.73172,-14.14853 -20.94665,-25.05538 -8.2189,-17.18952 -9.69729,-29.29328 -8.01726,-65.63827 0.69139,-14.95716 1.50411,-28.43002 1.80604,-29.93971 0.32106,-1.60528 1.43857,-3.04459 2.69169,-3.46679 1.1785,-0.39706 12.07955,-0.92926 24.22458,-1.18266 l 22.081857,-0.46072 3.5725,9.34407 c 14.972909,39.16245 15.640199,75.35504 1.8915,102.59107 -3.10431,6.1496 -15.301387,20.26071 -17.498847,20.24487 -0.62088,-0.004 -5.03331,-2.90089 -9.80541,-6.43648 z"
     id="path3049"
     style="fill:#ffffff;fill-opacity:1" />
</svg>
