<?xml version="1.0" encoding="UTF-8" standalone="no"?>
<!-- Created with Inkscape (http://www.inkscape.org/) -->

<svg
   xmlns:dc="http://purl.org/dc/elements/1.1/"
   xmlns:cc="http://creativecommons.org/ns#"
   xmlns:rdf="http://www.w3.org/1999/02/22-rdf-syntax-ns#"
   xmlns:svg="http://www.w3.org/2000/svg"
   xmlns="http://www.w3.org/2000/svg"
   xmlns:sodipodi="http://sodipodi.sourceforge.net/DTD/sodipodi-0.dtd"
   xmlns:inkscape="http://www.inkscape.org/namespaces/inkscape"
   version="1.1"
   width="500.00201"
   height="500"
   id="svg2"
   xml:space="preserve"
   inkscape:version="0.48.4 r9939"
   sodipodi:docname="silhoutte_01.svg"><sodipodi:namedview
     pagecolor="#ffffff"
     bordercolor="#666666"
     borderopacity="1"
     objecttolerance="10"
     gridtolerance="10"
     guidetolerance="10"
     inkscape:pageopacity="0"
     inkscape:pageshadow="2"
     inkscape:window-width="1920"
     inkscape:window-height="1014"
     id="namedview77"
     showgrid="false"
     inkscape:zoom="1.1996365"
     inkscape:cx="133.26783"
     inkscape:cy="190.54923"
     inkscape:window-x="0"
     inkscape:window-y="27"
     inkscape:window-maximized="1"
     inkscape:current-layer="svg2"
     fit-margin-top="0"
     fit-margin-left="49.3"
     fit-margin-right="49.3"
     fit-margin-bottom="0" /><metadata
     id="metadata8"><rdf:RDF><cc:Work
         rdf:about=""><dc:format>image/svg+xml</dc:format><dc:type
           rdf:resource="http://purl.org/dc/dcmitype/StillImage" /><dc:title /></cc:Work></rdf:RDF></metadata><defs
     id="defs6"><clipPath
       id="clipPath18"><path
         d="m 0,4 8000,0 0,7996 L 0,8000 0,4 z"
         id="path20"
         inkscape:connector-curvature="0" /></clipPath><radialGradient
       cx="0"
       cy="0"
       r="1"
       fx="0"
       fy="0"
       id="radialGradient22"
       gradientUnits="userSpaceOnUse"
       gradientTransform="matrix(541.804,0,0,-541.804,400.083,400.497)"
       spreadMethod="pad"><stop
         id="stop24"
         style="stop-color:#f2f0f2;stop-opacity:1"
         offset="0" /><stop
         id="stop26"
         style="stop-color:#d0cfd2;stop-opacity:1"
         offset="1" /></radialGradient></defs><path
     d="m 448.38596,477.37656 c -0.45749,-3.36127 -1.89032,-6.5764 -2.72266,-9.90272 -5.64237,-22.57579 -11.33875,-45.14205 -16.73966,-67.7782 -0.7593,-3.16747 -0.0602,-6.69712 0.0605,-10.05521 0.359,-9.76929 1.00711,-19.53222 1.08971,-29.30151 0.0572,-7.4596 -0.49243,-14.92874 -0.92135,-22.38516 -1.01665,-17.67368 -0.13674,-35.76035 -3.71392,-52.90664 -4.40648,-21.09531 -15.04627,-27.87821 -35.77621,-29.79395 -6.39534,-0.59409 -13.14009,-1.60756 -18.88729,-4.254 -15.43706,-7.10378 -30.43252,-15.18926 -45.73614,-22.95067 0,0 10.56353,15.69439 11.67548,54.07577 0.62587,28.77095 -6.5478,82.0906 -13.02571,123.70934 l -6.07448,-97.67062 c -0.038,-0.57186 -0.23178,-1.12466 -0.55914,-1.5885 l -17.6864,-24.99984 3.77746,-28.3357 c 0.12073,-0.88003 -0.15249,-1.77276 -0.74342,-2.44311 -0.58457,-0.66717 -1.42647,-1.05159 -2.32239,-1.05159 l -6.29364,0 27.4112,-17.1717 c -0.33994,-0.30182 -1.22632,-18.10892 -1.98245,-20.52345 8.14901,-17.77532 10.9416,-22.97926 19.81179,-50.56519 1.99515,-6.19198 9.52466,3.12936 13.07973,-27.27775 0.42889,-3.69168 0.36534,-8.63509 -3.16112,-10.78275 4.15234,-8.91467 12.90181,-40.90391 4.23812,-62.48848 -3.08805,-7.66611 -6.00771,-9.477 -13.65476,-13.29576 -0.58139,-0.28593 0.36218,-3.99667 1.30257,-4.39062 0,0 -5.1531,0.25734 -10.40151,-4.84493 1.59803,-0.23828 2.43359,-0.36536 3.62814,-0.54327 -1.82678,-1.4233 -2.91967,-1.64251 -5.20711,-3.21513 -0.72753,-0.49243 -1.34387,-0.6354 -1.57579,-1.52496 -0.54647,-2.0714 -2.50352,-4.23812 -3.47885,-5.04826 -1.50272,-1.24538 -3.46929,-1.82995 -4.5304,-3.78381 -1.20089,-2.20484 -2.80845,-4.14916 -4.81634,-5.84568 C 305.96732,11.24342 295.98836,7.35794 285.30728,5.04191 282.30819,4.38744 280.29079,6.12845 283.54404,3.37716 276.31,5.94101 275.20758,2.59243 275.20758,1.39788 271.36341,5.24523 259.16689,0 259.16689,0 c 0,0 2.1,3.91089 -2.00151,4.77822 -9.15931,1.93797 -16.61573,5.47079 -16.61573,5.47079 0,0 3.85371,2.70363 -2.72587,5.14358 -0.50196,0.18744 -3.06898,0.6481 -3.06898,0.6481 0,0 6.81785,0.96581 1.70922,2.15083 -6.31906,1.47413 -11.56111,4.05704 -16.63796,7.36112 -9.19425,5.98865 -6.01407,7.94886 -6.01407,7.94886 0,0 -8.45083,11.16399 -13.21634,16.35839 -3.895,4.25719 -6.96717,15.24327 -6.96717,15.24327 0,0 1.85855,-2.03328 3.3168,-0.60046 -0.22239,4.68608 -6.46838,18.78563 -1.30575,44.85295 0.68941,3.47881 2.3891,10.75097 2.3891,10.75097 0,0 -9.78199,1.6044 -5.71542,17.32739 1.79183,6.94175 5.25794,13.80725 12.14568,17.92146 3.52012,2.10636 7.07836,15.9708 7.54221,17.63237 3.36762,12.00909 4.20953,24.73615 4.20953,24.73615 l -2.96415,17.90877 58.11057,34.11149 -10.65884,0 c -1.07065,0 -2.06188,0.5528 -2.62421,1.46143 -0.5655,0.91498 -0.60998,2.05234 -0.13661,3.00862 l 14.15991,28.31663 -10.33797,26.78214 c -0.22239,0.57186 -0.26687,1.20091 -0.13344,1.79818 l 20.87927,92.35232 c -26.91875,-52.74461 -63.07623,-123.95079 -74.04325,-147.15245 -6.48108,-13.71512 2.06823,-49.26262 2.06823,-49.26262 0,0 -13.39107,7.26581 -18.25824,12.57776 -12.58093,13.72148 -26.17851,25.44144 -42.27638,35.31557 -22.12307,13.57533 -45.03085,24.45975 -69.773037,31.81134 -12.27753,3.65673 -17.003323,12.11709 -17.377892,24.64719 -0.588381,19.60529 1.205991,39.05173 -4.635248,58.79998 -4.5272,15.29092 -2.392889,32.52934 -3.438759,48.88456 C 53.041557,446.05766 51.129319,473.03042 49.3,500 c 133.79665,0 267.59616,0 401.40202,0 -0.74024,-7.54538 -1.31211,-15.11301 -2.31604,-22.62344"
     id="path96"
     style="fill:#696667;fill-opacity:1;fill-rule:evenodd;stroke:none"
     inkscape:connector-curvature="0" /></svg>