<?xml version="1.0" encoding="UTF-8" standalone="no"?>
<!-- Created with Inkscape (http://www.inkscape.org/) -->

<svg
   xmlns:dc="http://purl.org/dc/elements/1.1/"
   xmlns:cc="http://creativecommons.org/ns#"
   xmlns:rdf="http://www.w3.org/1999/02/22-rdf-syntax-ns#"
   xmlns:svg="http://www.w3.org/2000/svg"
   xmlns="http://www.w3.org/2000/svg"
   version="1.1"
   width="171.5675"
   height="201.87375"
   id="svg2"
   xml:space="preserve"><metadata
     id="metadata8"><rdf:RDF><cc:Work
         rdf:about=""><dc:format>image/svg+xml</dc:format><dc:type
           rdf:resource="http://purl.org/dc/dcmitype/StillImage" /><dc:title></dc:title></cc:Work></rdf:RDF></metadata><defs
     id="defs6"><clipPath
       id="clipPath18"><path
         d="m 0,4 8000,0 0,7996 L 0,8000 0,4 z"
         id="path20" /></clipPath><radialGradient
       cx="0"
       cy="0"
       r="1"
       fx="0"
       fy="0"
       id="radialGradient22"
       gradientUnits="userSpaceOnUse"
       gradientTransform="matrix(541.804,0,0,-541.804,400.083,400.497)"
       spreadMethod="pad"><stop
         id="stop24"
         style="stop-color:#f2f0f2;stop-opacity:1"
         offset="0" /><stop
         id="stop26"
         style="stop-color:#d0cfd2;stop-opacity:1"
         offset="1" /></radialGradient></defs><g
     transform="matrix(1.25,0,0,-1.25,-288.23,905.21875)"
     id="g10"><g
       transform="scale(0.1,0.1)"
       id="g12"><path
         d="m 3938.27,636.629 6.85,0 0,8.652 c 0,8.989 1.11,16.141 3.4,21.449 2.24,5.29 6.15,9.141 11.58,11.579 5.43,2.382 12.88,3.589 22.33,3.589 16.83,0 25.15,-4.046 25.15,-12.347 0,-2.621 -0.89,-4.942 -2.66,-6.789 -1.7,-1.903 -3.8,-2.84 -6.17,-2.84 -1.1,0 -3.07,0.18 -5.84,0.641 -2.63,0.406 -5.03,0.656 -6.89,0.656 -5.18,0 -8.49,-1.547 -10.03,-4.649 -1.4,-2.992 -2.16,-7.359 -2.16,-13.078 l 0,-6.863 7.01,0 c 10.97,0 16.4,-3.238 16.4,-9.887 0,-4.652 -1.41,-7.633 -4.34,-8.933 -2.91,-1.25 -6.91,-1.868 -12.06,-1.868 l -7.01,0 0,-76.082 c 0,-5.648 -1.33,-9.961 -4.1,-12.898 -2.66,-3.02 -6.12,-4.531 -10.41,-4.531 -4.09,0 -7.43,1.511 -10.18,4.531 -2.68,2.937 -4.02,7.25 -4.02,12.898 l 0,76.082 -7.89,0 c -4.32,0 -7.58,0.918 -9.91,2.868 -2.33,1.89 -3.47,4.421 -3.47,7.55 0,6.871 4.8,10.27 14.42,10.27 l 0,0"
         id="path30"
         style="fill:#63666c;fill-opacity:1;fill-rule:nonzero;stroke:none" /><path
         d="m 4032.25,563.859 0,-24 c 0,-5.789 -1.47,-10.14 -4.15,-13.046 -2.74,-2.942 -6.17,-4.383 -10.37,-4.383 -4.21,0 -7.59,1.441 -10.24,4.468 -2.64,2.922 -3.99,7.223 -3.99,12.961 l 0,79.961 c 0,12.91 4.65,19.391 13.97,19.391 4.8,0 8.19,-1.512 10.31,-4.512 2.1,-3.058 3.25,-7.5 3.51,-13.398 3.42,5.898 6.91,10.34 10.52,13.398 3.66,3 8.43,4.512 14.48,4.512 6.07,0 11.87,-1.512 17.56,-4.512 5.69,-3.058 8.52,-7.09 8.52,-12.008 0,-3.531 -1.22,-6.429 -3.59,-8.691 -2.46,-2.289 -5.05,-3.43 -7.82,-3.43 -1.12,0 -3.67,0.66 -7.68,1.981 -4.04,1.25 -7.61,1.89 -10.67,1.89 -4.19,0 -7.64,-1.089 -10.28,-3.281 -2.69,-2.23 -4.77,-5.5 -6.27,-9.84 -1.42,-4.351 -2.42,-9.531 -3,-15.5 -0.56,-6.039 -0.81,-13.328 -0.81,-21.961 l 0,0"
         id="path32"
         style="fill:#63666c;fill-opacity:1;fill-rule:nonzero;stroke:none" /><path
         d="m 4108.06,590.082 52.07,0 c -0.72,9.777 -3.32,17.137 -7.93,22.008 -4.62,4.851 -10.62,7.269 -18.17,7.269 -7.15,0 -13.01,-2.418 -17.61,-7.359 -4.59,-4.988 -7.39,-12.281 -8.36,-21.918 l 0,0 z m 56.17,-16.312 -56.17,0 c 0.09,-6.54 1.37,-12.329 3.93,-17.282 2.58,-4.949 5.99,-8.707 10.23,-11.258 4.26,-2.519 8.91,-3.769 14.03,-3.769 3.45,0 6.58,0.41 9.42,1.25 2.82,0.75 5.6,2.051 8.25,3.769 2.67,1.719 5.09,3.52 7.35,5.532 2.25,1.957 5.16,4.617 8.73,7.988 1.51,1.25 3.6,1.898 6.3,1.898 2.98,0 5.33,-0.808 7.2,-2.468 1.82,-1.598 2.71,-3.84 2.71,-6.828 0,-2.602 -1,-5.614 -2.98,-9.09 -2.08,-3.52 -5.14,-6.77 -9.25,-9.981 -4.15,-3.172 -9.29,-5.879 -15.48,-7.961 -6.2,-2.09 -13.35,-3.14 -21.39,-3.14 -18.5,0 -32.81,5.222 -43.03,15.761 -10.21,10.559 -15.38,24.789 -15.38,42.801 0,8.457 1.27,16.367 3.84,23.668 2.47,7.289 6.18,13.449 11.05,18.692 4.81,5.148 10.74,9.128 17.84,11.886 7.07,2.762 14.93,4.153 23.57,4.153 11.2,0 20.82,-2.352 28.87,-7.11 7.98,-4.742 14.08,-10.84 18.01,-18.332 4,-7.527 6.01,-15.187 6.01,-22.98 0,-7.149 -2.09,-11.848 -6.23,-13.989 -4.12,-2.16 -9.93,-3.21 -17.43,-3.21 l 0,0"
         id="path34"
         style="fill:#63666c;fill-opacity:1;fill-rule:nonzero;stroke:none" /><path
         d="m 4227.5,590.082 52.03,0 c -0.69,9.777 -3.36,17.137 -7.91,22.008 -4.65,4.851 -10.64,7.269 -18.17,7.269 -7.16,0 -13.01,-2.418 -17.64,-7.359 -4.57,-4.988 -7.39,-12.281 -8.31,-21.918 l 0,0 z m 56.15,-16.312 -56.15,0 c 0.05,-6.54 1.38,-12.329 3.92,-17.282 2.53,-4.949 5.97,-8.707 10.19,-11.258 4.25,-2.519 8.93,-3.769 14.07,-3.769 3.42,0 6.59,0.41 9.37,1.25 2.86,0.75 5.58,2.051 8.28,3.769 2.69,1.719 5.11,3.52 7.36,5.532 2.2,1.957 5.16,4.617 8.72,7.988 1.5,1.25 3.62,1.898 6.31,1.898 2.99,0 5.32,-0.808 7.21,-2.468 1.79,-1.598 2.66,-3.84 2.66,-6.828 0,-2.602 -1,-5.614 -3.04,-9.09 -1.96,-3.52 -5.03,-6.77 -9.2,-9.981 -4.09,-3.172 -9.28,-5.879 -15.43,-7.961 -6.19,-2.09 -13.38,-3.14 -21.44,-3.14 -18.43,0 -32.76,5.222 -43.02,15.761 -10.22,10.559 -15.37,24.789 -15.37,42.801 0,8.457 1.27,16.367 3.84,23.668 2.5,7.289 6.16,13.449 11.02,18.692 4.82,5.148 10.77,9.128 17.89,11.886 7.06,2.762 14.94,4.153 23.54,4.153 11.2,0 20.8,-2.352 28.96,-7.11 7.96,-4.742 14,-10.84 17.95,-18.332 3.96,-7.527 6.03,-15.187 6.03,-22.98 0,-7.149 -2.12,-11.848 -6.22,-13.989 -4.16,-2.16 -9.96,-3.21 -17.45,-3.21 l 0,0"
         id="path36"
         style="fill:#63666c;fill-opacity:1;fill-rule:nonzero;stroke:none" /><path
         d="m 4402.83,581.34 c 0,7.582 -1.18,14.07 -3.49,19.469 -2.32,5.5 -5.52,9.589 -9.62,12.543 -4.04,2.91 -8.64,4.359 -13.64,4.359 -7.88,0 -14.57,-3.109 -19.99,-9.352 -5.46,-6.25 -8.19,-15.41 -8.19,-27.578 0,-11.383 2.71,-20.281 8.12,-26.679 5.41,-6.313 12.06,-9.481 20.06,-9.481 4.78,0 9.2,1.418 13.28,4.129 4.1,2.789 7.36,6.922 9.77,12.5 2.46,5.531 3.7,12.27 3.7,20.09 l 0,0 z m -56.29,41.723 0,-3.454 c 5.37,6.633 11.01,11.532 16.89,14.672 5.71,3.09 12.34,4.719 19.7,4.719 8.82,0 17.02,-2.301 24.44,-6.859 7.44,-4.602 13.26,-11.2 17.59,-20.012 4.33,-8.789 6.5,-19.129 6.5,-31.137 0,-8.801 -1.25,-16.922 -3.71,-24.363 -2.49,-7.379 -5.97,-13.578 -10.28,-18.566 -4.38,-4.981 -9.5,-8.915 -15.4,-11.602 -5.99,-2.691 -12.3,-4.031 -19.14,-4.031 -8.17,0 -15.09,1.64 -20.63,4.961 -5.59,3.218 -10.88,8.14 -15.96,14.48 l 0,-43.101 c 0,-12.622 -4.63,-18.93 -13.78,-18.93 -5.43,0 -8.94,1.601 -10.76,4.859 -1.68,3.301 -2.58,8 -2.58,14.281 l 0,123.911 c 0,5.468 1.17,9.55 3.54,12.238 2.39,2.66 5.67,4.082 9.8,4.082 4.09,0 7.37,-1.422 9.91,-4.172 2.62,-2.797 3.87,-6.75 3.87,-11.976 l 0,0"
         id="path38"
         style="fill:#63666c;fill-opacity:1;fill-rule:nonzero;stroke:none" /><path
         d="m 4474.78,622.891 0,-83.032 c 0,-5.738 -1.37,-10.039 -4.11,-12.961 -2.76,-3.027 -6.2,-4.468 -10.4,-4.468 -4.24,0 -7.57,1.511 -10.28,4.531 -2.58,3.059 -3.95,7.32 -3.95,12.898 l 0,82.231 c 0,5.609 1.37,9.89 3.95,12.73 2.71,2.969 6.04,4.391 10.28,4.391 4.2,0 7.64,-1.422 10.4,-4.391 2.74,-2.84 4.11,-6.871 4.11,-11.929 l 0,0 z m -14.22,29.699 c -4.02,0 -7.41,1.25 -10.22,3.629 -2.85,2.543 -4.3,5.953 -4.3,10.402 0,4.07 1.48,7.438 4.4,10.051 2.89,2.641 6.3,3.976 10.12,3.976 3.78,0 7.04,-1.207 9.9,-3.566 2.86,-2.422 4.32,-5.891 4.32,-10.461 0,-4.402 -1.41,-7.859 -4.19,-10.351 -2.82,-2.43 -6.13,-3.68 -10.03,-3.68 l 0,0"
         id="path40"
         style="fill:#63666c;fill-opacity:1;fill-rule:nonzero;stroke:none" /><path
         d="m 4567.34,535.531 -25.29,41.699 -15.6,-14.718 0,-22.86 c 0,-5.531 -1.45,-9.742 -4.4,-12.683 -2.84,-3.028 -6.25,-4.539 -10.03,-4.539 -4.42,0 -7.89,1.441 -10.42,4.468 -2.49,2.922 -3.79,7.223 -3.79,12.961 l 0,122.5 c 0,6.352 1.25,11.211 3.66,14.52 2.48,3.359 6.03,5.019 10.55,5.019 4.43,0 7.9,-1.5 10.5,-4.578 2.62,-2.949 3.93,-7.422 3.93,-13.3 l 0,-69.649 32.27,33.879 c 4.02,4.191 7.04,7.082 9.16,8.641 2.13,1.5 4.65,2.32 7.65,2.32 3.61,0 6.58,-1.16 9.04,-3.422 2.33,-2.297 3.53,-5.141 3.53,-8.59 0,-4.136 -3.91,-9.847 -11.67,-16.84 l -15.24,-13.937 29.42,-46.332 c 2.14,-3.442 3.75,-6.031 4.69,-7.828 0.94,-1.762 1.45,-3.52 1.45,-5.11 0,-4.582 -1.25,-8.14 -3.77,-10.8 -2.49,-2.622 -5.81,-3.922 -9.83,-3.922 -3.48,0 -6.21,0.89 -8.1,2.84 -1.89,1.941 -4.5,5.339 -7.71,10.261 l 0,0"
         id="path42"
         style="fill:#63666c;fill-opacity:1;fill-rule:nonzero;stroke:none" /><path
         d="m 4629.72,522.43 c -4.35,0 -8.07,1.39 -11.22,4.211 -3.16,2.757 -4.75,6.73 -4.75,11.808 0,4.262 1.54,7.953 4.55,11 3.03,3.102 6.73,4.602 11.13,4.602 4.42,0 8.19,-1.5 11.34,-4.512 3.09,-3.059 4.69,-6.789 4.69,-11.09 0,-5.039 -1.6,-8.929 -4.69,-11.738 -3.15,-2.891 -6.85,-4.281 -11.05,-4.281 l 0,0"
         id="path44"
         style="fill:#63666c;fill-opacity:1;fill-rule:nonzero;stroke:none" /><path
         d="m 4772.53,558 c 0,-3.602 -1.08,-7.41 -3.21,-11.469 -2.14,-4.121 -5.42,-7.929 -9.83,-11.672 -4.36,-3.66 -9.87,-6.597 -16.54,-8.867 -6.66,-2.222 -14.17,-3.383 -22.49,-3.383 -17.76,0 -31.63,5.18 -41.6,15.539 -9.91,10.352 -14.91,24.204 -14.91,41.582 0,11.852 2.26,22.219 6.86,31.301 4.52,8.989 11.12,16.008 19.75,20.949 8.61,4.969 18.97,7.411 30.91,7.411 7.45,0 14.27,-1.102 20.51,-3.27 6.21,-2.141 11.44,-4.98 15.78,-8.383 4.26,-3.496 7.59,-7.117 9.85,-10.968 2.28,-3.93 3.41,-7.551 3.41,-10.969 0,-3.391 -1.25,-6.332 -3.82,-8.68 -2.57,-2.41 -5.7,-3.621 -9.28,-3.621 -2.41,0 -4.42,0.66 -6,1.871 -1.57,1.25 -3.35,3.207 -5.3,5.949 -3.52,5.352 -7.15,9.328 -11.01,11.981 -3.78,2.711 -8.64,4.019 -14.54,4.019 -8.43,0 -15.33,-3.32 -20.51,-9.968 -5.18,-6.582 -7.8,-15.723 -7.8,-27.153 0,-5.379 0.72,-10.418 2.03,-14.918 1.28,-4.48 3.23,-8.359 5.77,-11.57 2.54,-3.16 5.56,-5.563 9.13,-7.231 3.6,-1.718 7.53,-2.519 11.78,-2.519 5.78,0 10.71,1.371 14.8,4.039 4.17,2.66 7.77,6.742 10.93,12.191 1.75,3.211 3.6,5.739 5.61,7.539 2.03,1.79 4.53,2.762 7.48,2.762 3.53,0 6.45,-1.351 8.73,-4.012 2.33,-2.621 3.51,-5.539 3.51,-8.48 l 0,0"
         id="path46"
         style="fill:#63666c;fill-opacity:1;fill-rule:nonzero;stroke:none" /><path
         d="m 4867.58,580.781 c 0,11.719 -2.58,20.778 -7.73,27.328 -5.12,6.582 -12.07,9.84 -20.75,9.84 -5.62,0 -10.56,-1.437 -14.85,-4.359 -4.29,-2.942 -7.54,-7.18 -9.87,-12.918 -2.3,-5.672 -3.47,-12.293 -3.47,-19.891 0,-7.543 1.12,-14 3.41,-19.64 2.31,-5.602 5.54,-9.93 9.81,-12.903 4.29,-2.957 9.25,-4.488 14.97,-4.488 8.68,0 15.63,3.281 20.75,9.852 5.15,6.589 7.73,15.628 7.73,27.179 l 0,0 z m 28.84,0 c 0,-8.539 -1.36,-16.402 -3.93,-23.652 -2.74,-7.231 -6.56,-13.469 -11.64,-18.57 -5.01,-5.239 -11.1,-9.2 -18.05,-11.957 -7.1,-2.782 -14.96,-4.172 -23.7,-4.172 -8.67,0 -16.52,1.39 -23.47,4.211 -6.88,2.757 -12.96,6.82 -18.01,12.007 -5.1,5.262 -8.94,11.442 -11.63,18.532 -2.54,7.14 -3.9,15.011 -3.9,23.601 0,8.68 1.4,16.68 3.97,23.93 2.69,7.25 6.53,13.398 11.51,18.469 5.01,5.109 10.98,9.101 18.06,11.859 7.12,2.75 14.95,4.172 23.47,4.172 8.68,0 16.57,-1.422 23.7,-4.219 7.04,-2.801 13.07,-6.844 18.18,-11.929 5.07,-5.301 8.88,-11.434 11.53,-18.563 2.58,-7.18 3.91,-15.078 3.91,-23.719 l 0,0"
         id="path48"
         style="fill:#63666c;fill-opacity:1;fill-rule:nonzero;stroke:none" /><path
         d="m 5005.92,578.68 0,-38.18 c 0,-6.039 -1.32,-10.48 -4.08,-13.539 -2.77,-3.02 -6.32,-4.531 -10.82,-4.531 -4.35,0 -7.93,1.511 -10.54,4.531 -2.73,3.059 -4.1,7.5 -4.1,13.539 l 0,45.77 c 0,7.23 -0.23,12.859 -0.72,16.878 -0.5,3.911 -1.86,7.211 -4.01,9.813 -2.19,2.551 -5.63,3.859 -10.31,3.859 -9.43,0 -15.58,-3.23 -18.56,-9.761 -2.95,-6.387 -4.49,-15.68 -4.49,-27.778 l 0,-38.781 c 0,-5.93 -1.36,-10.441 -4.01,-13.5 -2.75,-3.059 -6.29,-4.57 -10.69,-4.57 -4.36,0 -7.93,1.511 -10.71,4.57 -2.77,3.059 -4.17,7.57 -4.17,13.5 l 0,82.191 c 0,5.348 1.29,9.5 3.73,12.301 2.55,2.797 5.82,4.219 9.85,4.219 3.95,0 7.21,-1.371 9.87,-3.973 2.61,-2.586 3.91,-6.238 3.91,-10.879 l 0,-2.718 c 5.03,5.898 10.35,10.339 16.01,13.101 5.72,2.848 11.96,4.258 18.96,4.258 7.22,0 13.4,-1.461 18.58,-4.301 5.19,-2.918 9.45,-7.301 12.84,-13.058 4.87,5.851 10.07,10.257 15.6,13.101 5.54,2.797 11.69,4.258 18.4,4.258 7.84,0 14.64,-1.621 20.33,-4.668 5.64,-3.051 9.87,-7.543 12.67,-13.191 2.48,-5.239 3.67,-13.422 3.67,-24.571 l 0,-56.07 c 0,-6.039 -1.36,-10.48 -4.08,-13.539 -2.68,-3.02 -6.34,-4.531 -10.84,-4.531 -4.34,0 -7.88,1.511 -10.66,4.57 -2.78,3.059 -4.15,7.57 -4.15,13.5 l 0,48.332 c 0,6.168 -0.27,11.09 -0.78,14.828 -0.54,3.692 -1.95,6.82 -4.25,9.352 -2.34,2.5 -5.87,3.808 -10.55,3.808 -3.78,0 -7.37,-1.218 -10.77,-3.429 -3.41,-2.231 -6.05,-5.282 -8,-8.993 -2.04,-4.878 -3.13,-13.418 -3.13,-25.718 l 0,0"
         id="path50"
         style="fill:#63666c;fill-opacity:1;fill-rule:nonzero;stroke:none" /><path
         d="m 3739.43,512.379 c 0,0 -15.68,2.512 -30.97,19.23 -15.41,16.891 -17.99,34.743 -17.99,34.743 0,0 19.53,-4.602 33.54,-6.161 24.76,-2.812 47.02,-1.25 57.5,-0.089 22.73,2.507 34.84,6.679 39.76,7.878 29.02,6.989 56.93,25.77 56.93,25.77 0,0 3.54,-21.809 -12.86,-46.012 -6.41,-9.429 -19.16,-20.277 -33.83,-27.769 -50.26,-21.438 -92.08,-7.59 -92.08,-7.59 l 0,0"
         id="path52"
         style="fill:#63666c;fill-opacity:1;fill-rule:evenodd;stroke:none" /><path
         d="m 3829.74,610.648 c -10.41,-0.578 -19.37,7.25 -20.04,17.602 -0.64,10.328 7.31,19.301 17.7,19.93 10.39,0.711 19.42,-7.188 20.04,-17.5 0.66,-10.371 -7.31,-19.34 -17.7,-20.032 l 0,0 z m -84.54,-21.226 c -16.53,-1.043 -30.77,11.387 -31.8,27.898 -1.02,16.41 11.56,30.66 28.1,31.66 16.57,1.141 30.84,-11.39 31.82,-27.8 1.06,-16.469 -11.56,-30.711 -28.12,-31.758 l 0,0 z m 112.93,46.918 c -5.39,6.539 -23.38,37.359 -59.81,41.851 -9.28,1.122 -58.52,-0.82 -88.05,-28.109 -2.91,-2.781 -17.91,-15.934 -22.87,-40.461 -3.9,-18.949 2.46,-40.269 2.46,-40.269 0,0 32.75,-6.832 57.42,-6.204 39.13,0.973 58.83,4.442 79.28,10.633 30.12,9.098 51.46,24.379 51.46,24.379 0,0 -14.47,31.602 -19.89,38.18 l 0,0"
         id="path54"
         style="fill:#63666c;fill-opacity:1;fill-rule:evenodd;stroke:none" /><path
         d="m 3843.97,657.691 9.53,11.411 c 0,0 13.12,-6.493 21.56,-18.633 8.41,-12.129 13.89,-23.219 13.89,-23.219 l -15.69,-9.539 c 0,0 -4.88,11.687 -12.17,21.09 -7.28,9.34 -17.12,18.89 -17.12,18.89 l 0,0"
         id="path56"
         style="fill:#63666c;fill-opacity:1;fill-rule:evenodd;stroke:none" /><path
         d="m 3873.83,649.762 c 2.46,1.449 6.6,1.707 6.34,5.168 -0.17,3.472 -2.51,10.3 4.32,12.652 6.91,2.309 3.03,-2.051 0.66,-5.062 -2.36,-3.02 -1.6,-4.868 -1.31,-9.301 0.24,-4.367 -2.82,-5.879 -7.47,-8.039 -4.67,-2.188 -5.02,3.109 -2.54,4.582 l 0,0"
         id="path58"
         style="fill:#63666c;fill-opacity:1;fill-rule:evenodd;stroke:none" /><path
         d="m 3699.4,642.738 c 0,0 -11.02,-12.777 -13.81,-24.328 -2.78,-11.597 -2.21,-25.551 -2.21,-25.551 l -16.29,5.61 c 0,0 -0.94,16.031 6.47,28.972 8.25,14.391 18.79,20.789 18.79,20.789 l 7.05,-5.492"
         id="path60"
         style="fill:#63666c;fill-opacity:1;fill-rule:evenodd;stroke:none" /><path
         d="m 3675.42,628.199 c -2.65,1.711 -2.9,5.832 -4.99,8.543 -2.1,2.758 -2.64,1.098 -7.41,1.098 -4.8,0 -4.92,2.281 -6.27,3.441 -1.36,1.211 -2,-3.64 -2,-3.64 0,0 0.88,-4.071 6.01,-4.36 5.1,-0.289 4.96,2.211 7.17,-2.39 2.21,-4.649 6.54,-8.161 6.54,-8.161 0,0 3.63,3.719 0.95,5.469 l 0,0"
         id="path62"
         style="fill:#63666c;fill-opacity:1;fill-rule:evenodd;stroke:none" /><path
         d="m 3761.92,688.91 c 26.75,6.699 43.47,-1.012 43.47,-1.012 l -1.43,-7.699 c 0,0 -19.54,1.289 -35.04,-1 -15.48,-2.238 -22.53,-7.129 -22.53,-7.129 l -3.34,7.68 c 0,0 7.31,6.262 18.87,9.16 l 0,0"
         id="path64"
         style="fill:#63666c;fill-opacity:1;fill-rule:evenodd;stroke:none" /><path
         d="m 3769.94,699.879 3.76,1.371 4.97,-13.309 -3.73,-1.441 -5,13.379"
         id="path66"
         style="fill:#63666c;fill-opacity:1;fill-rule:evenodd;stroke:none" /><path
         d="m 3887.72,675.121 c 3.78,0.199 7.02,-2.672 7.24,-6.41 0.27,-3.781 -2.61,-6.992 -6.4,-7.242 -3.79,-0.25 -7.02,2.64 -7.25,6.351 -0.24,3.789 2.62,7 6.41,7.301 l 0,0"
         id="path68"
         style="fill:#63666c;fill-opacity:1;fill-rule:evenodd;stroke:none" /><path
         d="m 3652.9,649.262 c 3.76,0.238 7.02,-2.621 7.27,-6.383 0.21,-3.738 -2.64,-6.93 -6.44,-7.18 -3.75,-0.25 -7,2.59 -7.27,6.332 -0.21,3.758 2.68,6.949 6.44,7.231 l 0,0"
         id="path70"
         style="fill:#63666c;fill-opacity:1;fill-rule:evenodd;stroke:none" /><path
         d="m 3773.21,716.922 c 6.01,0.348 11.2,-4.141 11.57,-10.152 0.36,-5.918 -4.23,-11.122 -10.24,-11.508 -6.02,-0.41 -11.14,4.129 -11.53,10.136 -0.41,6.004 4.18,11.161 10.2,11.524 l 0,0"
         id="path72"
         style="fill:#63666c;fill-opacity:1;fill-rule:evenodd;stroke:none" /><path
         d="m 2883.15,585.309 c -10.44,0 -15.62,-10.93 -15.62,-20.43 0,-9.34 5.18,-20.258 15.62,-20.258 10.98,0 15.74,11.16 15.74,20.969 0,9.719 -5.01,19.719 -15.74,19.719 l 0,0 z m 35.83,-47.071 c 0,-6.726 -4.23,-11.136 -10.08,-11.136 -5.54,0 -8.74,3.007 -10.01,8.367 -3.77,-6.149 -11.55,-9.168 -18.39,-9.168 -20.21,0 -33.03,18.711 -33.03,37.687 0,19.582 10.72,39.762 32.34,39.762 6.96,0 13.78,-2.43 19.08,-6.98 l 0,27.332 c 0,6.668 4.18,11.097 10.01,11.097 5.85,0 10.08,-4.429 10.08,-11.097 l 0,-85.864"
         id="path74"
         style="fill:#63666c;fill-opacity:1;fill-rule:nonzero;stroke:none" /><path
         d="m 2978.04,571.691 c -1.08,8.801 -6.68,15.289 -16.04,15.289 -8.9,0 -14.92,-6.781 -15.86,-15.289 l 31.9,0 z m -31.51,-13.39 c 1.43,-9.852 9.62,-14.5 19.01,-14.5 10.27,0 17.35,8.051 22.71,8.051 4.28,0 8.16,-4.262 8.16,-8.653 0,-8.629 -17.8,-16.898 -32.72,-16.898 -22.59,0 -37.63,16.41 -37.63,38.578 0,20.351 14.76,38.871 35.94,38.871 21.74,0 36.1,-19.77 36.1,-36.52 0,-5.98 -2.65,-8.929 -8.76,-8.929 l -42.81,0"
         id="path76"
         style="fill:#63666c;fill-opacity:1;fill-rule:nonzero;stroke:none" /><path
         d="m 3047.45,580.32 c -3.76,0 -11.42,5.899 -17.99,5.899 -3.61,0 -6.82,-1.699 -6.82,-5.637 0,-9.34 34.83,-7.93 34.83,-30.781 0,-13.352 -11.27,-23.5 -28.58,-23.5 -11.27,0 -28,6.359 -28,15.41 0,3.051 3.07,8.879 8.64,8.879 7.79,0 11.28,-6.789 20.74,-6.789 6.14,0 7.97,1.98 7.97,5.738 0,9.211 -34.82,7.789 -34.82,30.781 0,13.93 11.29,23.43 27.17,23.43 9.88,0 25.05,-4.621 25.05,-14.531 0,-4.559 -3.45,-8.899 -8.19,-8.899 l 0,0"
         id="path78"
         style="fill:#63666c;fill-opacity:1;fill-rule:nonzero;stroke:none" /><path
         d="m 3064.3,591.719 c 0,6.703 4.17,11.191 10.04,11.191 5.83,0 10.01,-4.488 10.01,-11.191 l 0,-53.481 c 0,-6.726 -4.18,-11.136 -10.01,-11.136 -5.87,0 -10.04,4.41 -10.04,11.136 l 0,53.481 z m 21.31,30.261 c 0,-6.289 -5,-11.582 -11.27,-11.582 -6,0 -11.3,5.454 -11.3,11.582 0,5.719 5.3,11.012 11.3,11.012 5.97,0 11.27,-5.133 11.27,-11.012 l 0,0"
         id="path80"
         style="fill:#63666c;fill-opacity:1;fill-rule:nonzero;stroke:none" /><path
         d="m 3128.24,585.309 c -10.44,0 -15.58,-10.84 -15.58,-20.18 0,-10.731 5.14,-20.508 15.58,-20.508 10.71,0 15.76,10.078 15.76,19.84 0,9.711 -4.72,20.848 -15.76,20.848 l 0,0 z m 35.83,-51.528 c 0,-24.109 -15.75,-36.281 -38.6,-36.281 -8.2,0 -31.64,4.082 -31.64,15.082 0,3.738 4.18,8.777 8.11,8.777 6.4,0 13.5,-6.218 25.06,-6.218 9.78,0 17,5.621 17,15.879 l 0,4.71 -0.28,0 c -4.15,-6.121 -11.01,-9.429 -20.19,-9.429 -21.03,0 -30.95,18.461 -30.95,38.418 0,20.191 12.79,39.031 33.01,39.031 6.87,0 14.62,-3.078 18.41,-9.18 1.26,5.25 4.46,8.34 10.04,8.34 5.83,0 10.03,-4.488 10.03,-11.191 l 0,-57.938"
         id="path82"
         style="fill:#63666c;fill-opacity:1;fill-rule:nonzero;stroke:none" /><path
         d="m 3175.49,591.719 c 0,6.703 4.16,11.191 10.03,11.191 5.14,0 8.5,-2.781 9.19,-7.449 3.9,5.469 9.88,8.289 19.37,8.289 15.74,0 27.44,-10.051 27.44,-27.02 l 0,-38.492 c 0,-6.726 -4.14,-11.136 -10,-11.136 -5.82,0 -10.06,4.41 -10.06,11.136 l 0,34.953 c 0,9.348 -5.82,13.789 -13.08,13.789 -8.24,0 -12.82,-5.988 -12.82,-13.789 l 0,-34.953 c 0,-6.726 -4.19,-11.136 -10.04,-11.136 -5.87,0 -10.03,4.41 -10.03,11.136 l 0,53.481"
         id="path84"
         style="fill:#63666c;fill-opacity:1;fill-rule:nonzero;stroke:none" /><path
         d="m 3300.63,571.691 c -1.12,8.801 -6.71,15.289 -16.04,15.289 -8.93,0 -14.94,-6.781 -15.88,-15.289 l 31.92,0 z m -31.51,-13.39 c 1.39,-9.852 9.61,-14.5 18.96,-14.5 10.32,0 17.41,8.051 22.7,8.051 4.32,0 8.25,-4.262 8.25,-8.653 0,-8.629 -17.87,-16.898 -32.76,-16.898 -22.6,0 -37.62,16.41 -37.62,38.578 0,20.351 14.77,38.871 35.94,38.871 21.74,0 36.08,-19.77 36.08,-36.52 0,-5.98 -2.64,-8.929 -8.77,-8.929 l -42.78,0"
         id="path86"
         style="fill:#63666c;fill-opacity:1;fill-rule:nonzero;stroke:none" /><path
         d="m 3360.55,585.309 c -10.47,0 -15.61,-10.93 -15.61,-20.43 0,-9.34 5.14,-20.258 15.61,-20.258 10.97,0 15.74,11.16 15.74,20.969 0,9.719 -5.02,19.719 -15.74,19.719 l 0,0 z m 35.8,-47.071 c 0,-6.726 -4.2,-11.136 -10.06,-11.136 -5.55,0 -8.74,3.007 -10,8.367 -3.79,-6.149 -11.57,-9.168 -18.42,-9.168 -20.19,0 -32.99,18.711 -32.99,37.687 0,19.582 10.71,39.762 32.34,39.762 6.92,0 13.77,-2.43 19.07,-6.98 l 0,27.332 c 0,6.668 4.17,11.097 10,11.097 5.86,0 10.06,-4.429 10.06,-11.097 l 0,-85.864"
         id="path88"
         style="fill:#63666c;fill-opacity:1;fill-rule:nonzero;stroke:none" /><path
         d="m 3480.94,544.621 c 10.44,0 15.58,10.918 15.58,20.258 0,9.5 -5.14,20.43 -15.58,20.43 -10.73,0 -15.74,-10 -15.74,-19.719 0,-9.809 4.76,-20.969 15.74,-20.969 l 0,0 z m -35.84,79.481 c 0,6.668 4.22,11.097 10.07,11.097 5.86,0 10.03,-4.429 10.03,-11.097 l 0,-27.34 c 5.3,4.558 12.1,6.988 19.07,6.988 21.6,0 32.31,-20.18 32.31,-39.77 0,-18.968 -12.78,-37.679 -33.01,-37.679 -6.84,0 -14.62,3.019 -18.37,9.168 -1.28,-5.36 -4.48,-8.367 -10.03,-8.367 -5.85,0 -10.07,4.41 -10.07,11.136 l 0,85.864"
         id="path90"
         style="fill:#63666c;fill-opacity:1;fill-rule:nonzero;stroke:none" /><path
         d="m 3520.09,589.121 c -0.56,1.508 -1.01,3.059 -1.01,5.129 0,5.063 5.31,8.66 9.51,8.66 4.85,0 8.34,-2.68 10.04,-7.09 l 13.75,-37.82 14.81,37.82 c 1.67,4.41 5.13,7.09 10.03,7.09 4.18,0 9.45,-3.597 9.45,-8.66 0,-2.07 -0.27,-3.621 -0.97,-5.129 l -33.57,-83.641 c -1.65,-4.148 -4.75,-7.98 -9.48,-7.98 -6.82,0 -10.43,4.379 -10.43,8.629 0,2.031 0.57,4.09 1.22,5.891 l 8.8,21.761 -22.15,55.34"
         id="path92"
         style="fill:#63666c;fill-opacity:1;fill-rule:nonzero;stroke:none" /><path
         d="m 5469.6,5695.02 c -1.42,10.57 -5.93,20.7 -8.55,31.16 -17.75,71.07 -35.69,142.1 -52.69,213.34 -2.39,9.97 -0.2,21.09 0.19,31.66 1.13,30.74 3.17,61.48 3.43,92.24 0.18,23.48 -1.56,46.99 -2.91,70.44 -3.22,55.63 -0.43,112.57 -11.68,166.55 -13.87,66.39 -47.36,87.73 -112.61,93.78 -20.12,1.85 -41.36,5.05 -59.45,13.37 -48.59,22.36 -95.8,47.82 -143.96,72.26 0,0 33.24,-49.42 36.75,-170.22 1.88,-87.13 -18.96,-245.79 -38.68,-374.36 l -16.6,262.71 c -0.1,1.79 -0.72,3.53 -1.75,5.01 l -55.69,78.67 11.91,89.18 c 0.35,2.78 -0.47,5.59 -2.32,7.7 -1.85,2.1 -4.51,3.31 -7.31,3.31 l -43.47,0 109.37,83.2 c 0,0 5.38,54.91 23.82,78 5.09,6.38 7.17,15.25 10.24,23.13 10.77,27.81 11.69,57.6 16.9,86.51 1.4,7.84 3.05,14.38 10.78,18.94 7.34,4.35 13.58,11.57 14.39,20.14 1.14,12.09 4.45,23.66 6.23,35.58 6.85,46.3 10.76,118.32 -4.26,138.08 -20.87,27.41 -8.76,68.66 -20.79,101.42 -0.51,1.48 -0.79,3.16 -0.79,4.74 0,32.31 -19.65,57.3 -32.84,84.32 -7.6,15.6 -19.63,29.06 -26.47,45.66 -3.68,8.94 -8.11,18.35 -16.53,24.85 -19.39,14.91 -37.91,31.09 -62.48,37.28 -3.09,0.78 -6.13,2.23 -8.82,3.97 -17.42,11.34 -34.6,22.08 -56.92,21.99 -25.49,-0.11 -50.82,9.1 -76.45,2.2 -10.1,-2.7 -20.34,-5.19 -30.21,-7.33 -9.01,-1.96 -21.31,2.79 -21.31,2.79 0,0 10,-14.72 -9.59,-10.66 -29.02,6.03 -69.52,0.29 -72.88,-1.63 17.54,-4.05 32.46,-17.9 22.66,-20.25 -12.52,-3.02 -38.91,-10.14 -48.73,-17.54 -30.95,-23.3 -56.9,-51.39 -70.37,-88.79 -5.06,-14.05 -10.29,-28.02 -16.79,-41.46 -6.09,-12.6 -7.88,-25.89 -9.4,-39.69 -1.76,-15.85 1.52,-31.6 -0.06,-46.93 -3.72,-36.38 7.46,-70.24 14.17,-104.88 1.31,-6.64 1.45,-12.12 -0.58,-18.61 -5.32,-16.9 -13.68,-35.21 -6.16,-51.86 11.22,-24.77 18.7,-50.64 28.38,-75.8 6.79,-17.62 17.23,-32.63 30.48,-47.07 14.67,-15.95 48.29,-35.12 56.24,-52.19 7.21,-15.48 13.54,-43.99 13.46,-56.97 0,-0.71 0.05,-1.4 0.06,-2.1 17.99,-12.52 141.12,-94.67 192.67,-129.04 l -37.93,0 c -3.34,0 -6.49,-1.73 -8.24,-4.61 -1.77,-2.87 -1.94,-6.45 -0.45,-9.46 l 44.57,-89.13 -32.53,-84.31 c -0.7,-1.8 -0.84,-3.76 -0.42,-5.64 l 57.52,-254.5 c -84.33,165.33 -195.64,384.61 -229.69,456.68 -20.42,43.16 6.47,155.05 6.47,155.05 0,0 -42.16,-22.87 -57.46,-39.57 -39.62,-43.22 -82.41,-80.1 -133.07,-111.18 -69.64,-42.71 -141.73,-76.99 -219.6,-100.13 -38.66,-11.49 -53.54,-38.14 -54.72,-77.56 -1.85,-61.73 3.8,-122.92 -14.58,-185.1 -14.25,-48.13 -7.55,-102.37 -10.85,-153.85 -5.43,-84.91 -11.43,-169.81 -17.21,-254.71 421.16,0 842.32,0 1263.47,0 -2.35,23.75 -4.13,47.59 -7.31,71.22"
         id="path94"
         style="fill:#696667;fill-opacity:1;fill-rule:evenodd;stroke:none" /><path
         d="m 1952.14,5743.72 c -1.44,10.58 -5.95,20.7 -8.57,31.17 -17.76,71.06 -35.69,142.09 -52.69,213.34 -2.39,9.97 -0.19,21.08 0.19,31.65 1.13,30.75 3.17,61.48 3.43,92.23 0.18,23.48 -1.55,46.99 -2.9,70.46 -3.2,55.63 -0.43,112.56 -11.69,166.53 -13.87,66.4 -47.36,87.75 -112.61,93.78 -20.13,1.87 -41.36,5.06 -59.45,13.39 -48.59,22.36 -95.79,47.81 -143.96,72.24 0,0 33.25,-49.4 36.75,-170.21 1.97,-90.56 -20.61,-258.39 -41,-389.39 l -19.12,307.43 c -0.12,1.8 -0.73,3.54 -1.76,5 l -55.67,78.69 11.89,89.19 c 0.38,2.77 -0.48,5.58 -2.34,7.69 -1.84,2.1 -4.49,3.31 -7.31,3.31 l -19.81,0 86.28,54.05 c -1.07,0.95 -3.86,57 -6.24,64.6 25.65,55.95 34.44,72.33 62.36,159.16 6.28,19.49 29.98,-9.85 41.17,85.86 1.35,11.62 1.15,27.18 -9.95,33.94 13.07,28.06 40.61,128.75 13.34,196.69 -9.72,24.13 -18.91,29.83 -42.98,41.85 -1.83,0.9 1.14,12.58 4.1,13.82 0,0 -16.22,-0.81 -32.74,15.25 5.03,0.75 7.66,1.15 11.42,1.71 -5.75,4.48 -9.19,5.17 -16.39,10.12 -2.29,1.55 -4.23,2 -4.96,4.8 -1.72,6.52 -7.88,13.34 -10.95,15.89 -4.73,3.92 -10.92,5.76 -14.26,11.91 -3.78,6.94 -8.84,13.06 -15.16,18.4 -26.7,22.66 -58.11,34.89 -91.73,42.18 -9.44,2.06 -15.79,-3.42 -5.55,5.24 -22.77,-8.07 -26.24,2.47 -26.24,6.23 -12.1,-12.11 -50.49,4.4 -50.49,4.4 0,0 6.61,-12.31 -6.3,-15.04 -28.83,-6.1 -52.3,-17.22 -52.3,-17.22 0,0 12.13,-8.51 -8.58,-16.19 -1.58,-0.59 -9.66,-2.04 -9.66,-2.04 0,0 21.46,-3.04 5.38,-6.77 -19.89,-4.64 -36.39,-12.77 -52.37,-23.17 -28.94,-18.85 -18.93,-25.02 -18.93,-25.02 0,0 -26.6,-35.14 -41.6,-51.49 -12.26,-13.4 -21.93,-47.98 -21.93,-47.98 0,0 5.85,6.4 10.44,1.89 -0.7,-14.75 -20.36,-59.13 -4.11,-141.18 2.17,-10.95 7.52,-33.84 7.52,-33.84 0,0 -30.79,-5.05 -17.99,-54.54 5.64,-21.85 16.55,-43.46 38.23,-56.41 11.08,-6.63 22.28,-50.27 23.74,-55.5 10.6,-37.8 13.25,-77.86 13.25,-77.86 l -9.33,-56.37 182.91,-107.37 -33.55,0 c -3.37,0 -6.49,-1.74 -8.26,-4.6 -1.78,-2.88 -1.92,-6.46 -0.43,-9.47 l 44.57,-89.13 -32.54,-84.3 c -0.7,-1.8 -0.84,-3.78 -0.42,-5.66 l 65.72,-290.69 c -84.73,166.02 -198.54,390.15 -233.06,463.18 -20.4,43.17 6.51,155.06 6.51,155.06 0,0 -42.15,-22.87 -57.47,-39.59 -39.6,-43.19 -82.4,-80.08 -133.07,-111.16 -69.635,-42.73 -141.74,-76.99 -219.619,-100.13 -38.645,-11.51 -53.52,-38.14 -54.699,-77.58 -1.852,-61.71 3.796,-122.92 -14.59,-185.08 -14.25,-48.13 -7.532,-102.39 -10.824,-153.87 -5.442,-84.9 -11.461,-169.8 -17.219,-254.69 421.141,0 842.291,0 1263.461,0 -2.33,23.75 -4.13,47.57 -7.29,71.21"
         id="path96"
         style="fill:#696667;fill-opacity:1;fill-rule:evenodd;stroke:none" /><path
         d="m 7312.78,5881.16 c -3.31,51.48 3.39,105.72 -10.85,153.85 -18.37,62.17 -12.72,123.38 -14.55,185.08 -1.21,39.45 -16.08,66.09 -54.74,77.57 -77.87,23.16 -149.97,57.42 -219.58,100.15 -50.68,31.07 -93.49,67.97 -133.08,111.15 -15.31,16.72 -57.48,39.58 -57.48,39.58 0,0 26.9,-111.88 6.49,-155.04 -33.77,-71.5 -143.56,-287.77 -227.64,-452.62 l 53.3,235.79 c 0.4,1.88 0.27,3.86 -0.42,5.65 l -32.54,84.31 44.57,89.13 c 1.51,3.02 1.33,6.59 -0.42,9.46 -1.78,2.87 -4.9,4.61 -8.28,4.61 l -54.28,0 c 51.24,31.4 199.03,121.89 219.42,133.63 -37.12,138.92 41.86,202.54 41.86,202.54 -0.96,1.63 37.87,29.65 44.08,57.04 7.96,26.08 10.31,50.2 6.09,74.86 -0.78,4.49 -2.74,8.36 -6.91,10.23 -3.79,1.7 -9.37,2.56 -11,-0.94 -0.28,-1.17 -0.46,-1.88 -0.46,-1.88 0.03,0.74 0.21,1.35 0.46,1.88 4.32,18.18 43.89,275.06 -44.36,277.79 -7,0.22 -9.98,9.99 -15.6,14.59 -17.49,14.31 -36.39,26.91 -57.07,36.34 -5.98,2.73 -12.07,5.11 -17.77,8.48 -22.15,13.09 -46.02,20.92 -71.86,19.25 -15.05,-0.96 -28.53,7.06 -43.44,5.38 -1.38,-0.13 -3.84,0.93 -4.23,2.02 -2.8,7.33 -9.51,5.88 -14.34,5.47 -13.53,-1.1 -26.8,-5.81 -40.61,-2.2 -0.81,0.21 -1.9,-0.44 -2.8,-0.8 -13.03,-5.23 -26.95,-4.95 -40.56,-6.57 -15.57,-1.86 -31.12,-2.96 -45.07,-12.04 -11.17,-7.26 -23.18,-13.42 -35.42,-18.73 -6.05,-2.63 -13.05,-3.91 -17.81,-8.38 -10.6,-9.99 -24.03,-13.08 -37.25,-15.38 -10.22,-1.76 -16.59,-7.43 -20.93,-15.18 -2.84,-5.01 -13.68,-25.25 -26.03,-42.41 -1.48,-2.07 -4.96,-21.65 -4.12,-25.32 0.78,-3.4 1.49,-6.71 1.68,-10.36 0.53,-9.91 -4.92,-19.58 -0.37,-29.66 1.95,-4.34 -1.41,-8.32 -4.93,-10.94 -4.52,-3.31 -5.48,-7.62 -5.3,-12.81 0.41,-12.07 1.9,-24.05 2.43,-36.13 0,0 -18.77,-229.19 56.07,-368.41 0,0 38.17,-73.95 90.25,-104.46 l -34.57,-30.22 110.64,-96.68 -39.84,0 c -2.82,0 -5.48,-1.2 -7.33,-3.31 -1.84,-2.11 -2.69,-4.92 -2.31,-7.69 l 11.9,-89.18 -55.69,-78.69 c -1.04,-1.49 -1.64,-3.21 -1.74,-5 l -15.32,-242.39 c -19.45,127.53 -39.65,282.83 -37.81,368.67 3.53,120.82 36.76,170.22 36.76,170.22 -48.16,-24.44 -95.36,-49.89 -143.97,-72.26 -18.08,-8.31 -39.32,-11.52 -59.45,-13.38 -65.24,-6.02 -98.74,-27.37 -112.59,-93.78 -11.27,-53.96 -8.46,-110.89 -11.68,-166.52 -1.35,-23.46 -3.1,-46.97 -2.91,-70.46 0.24,-30.76 2.29,-61.48 3.41,-92.22 0.38,-10.58 2.58,-21.69 0.21,-31.68 -17.01,-71.23 -34.95,-142.28 -52.71,-213.33 -2.6,-10.45 -7.14,-20.59 -8.55,-31.17 -3.17,-23.63 -4.95,-47.46 -7.31,-71.21 421.17,0 842.31,0 1263.48,0 -5.77,84.9 -11.77,169.79 -17.22,254.71"
         id="path98"
         style="fill:#696667;fill-opacity:1;fill-rule:evenodd;stroke:none" /><path
         d="m 1927.08,1399.14 c -1.4,10.47 -5.89,20.53 -8.47,30.89 -17.62,70.45 -35.39,140.86 -52.26,211.5 -2.35,9.87 -0.18,20.88 0.22,31.36 1.1,30.49 3.13,60.97 3.36,91.44 0.19,23.28 -1.52,46.6 -2.87,69.86 -3.18,55.14 -0.41,111.57 -11.59,165.08 -13.74,65.83 -46.95,86.98 -111.61,92.96 -19.97,1.84 -41,5.03 -58.93,13.28 -48.19,22.16 -94.97,47.4 -142.72,71.61 0,0 32.94,-48.95 36.42,-168.74 2.1,-96.68 -24.03,-282.26 -45.27,-415.36 l -17.26,294.83 c -0.12,1.77 -0.72,3.49 -1.75,4.96 l -55.18,77.99 11.8,88.42 c 0.34,2.74 -0.48,5.53 -2.31,7.61 -1.82,2.1 -4.48,3.31 -7.26,3.31 l -22.84,0 c 38.26,25.63 96.5,64.71 96.46,64.68 -15.08,41.66 1.78,53.87 10.45,76.37 0,0.01 0,0.01 0,0.01 0,0 21.47,50.96 30.06,66.29 6.3,11.23 11.34,23.25 15.34,35.82 8.21,25.75 4.64,51.97 4.96,78 0.13,10.94 1.4,19.86 11.22,26.44 5.42,3.65 9.39,9.14 11.21,15.77 9.04,33.09 8.64,67.28 11.42,101.1 l 0,0 c 3.91,16.78 10.84,33.36 3.25,50.86 0,0 0,0 0,0.02 -6.06,9.25 -3.32,30.61 -3.32,30.61 -9.18,30.22 -18.24,60.48 -27.55,90.64 -9.54,30.95 -26.45,57.22 -50.56,78.87 -18.14,23.94 -41.46,40.71 -69.89,50.34 -13.89,5.23 -28.35,8.14 -42.9,10.7 l -0.05,0.02 c -9.71,9.78 -23.08,8.54 -34.84,9.43 -7.51,0.59 -10.95,3.43 -14.08,8.34 -6.42,10.08 -17.69,9.99 -24.74,-0.5 -0.5,0.12 -1.03,0.17 -1.53,0.19 -0.81,3.89 -4.04,4.21 -7.14,5.3 -14.89,5.21 -32.63,0.78 -41.55,-5.79 -5.97,-4.9 -13.29,-3.24 -20,-3.49 -9.41,-0.38 -18.18,-1.96 -25.79,-7.78 0,-0.01 0,-0.02 0,-0.05 -0.69,0.11 -1.74,-0.21 -1.74,-0.21 -5.48,-2.24 -10.75,5.29 -16.25,1.03 -0.36,0.08 -3.08,-0.1 -3.95,-0.66 -2.55,3.05 -6.36,3.15 -9.93,3.79 -1.37,0.06 -2.48,-0.42 -3.42,-1.41 l -0.2,0.06 c -13.34,-1.74 -27.81,1.82 -39.43,-8.32 l 0.01,0 c -6.41,-8.59 -16.09,-10.12 -25.66,-11.87 -4.99,-1.35 -9.11,-4.05 -12.08,-8.37 0.3,-3.1 -9.97,-21.8 -10.26,-21.92 -0.21,-0.69 -36.87,-51.23 -52.9,-81.83 0.02,0 0.02,0 0.02,0 l -0.02,0 c -9.3,-13.49 -16.93,-27.6 -17.31,-44.54 -0.54,-1.89 -0.91,-3.79 -1.19,-5.73 -6.73,-33.99 -4.64,-68.24 -1.75,-102.51 0.12,-1.6 5.38,-34.36 14.89,-46.81 0.01,0 0.01,0 0.03,-0.01 -0.02,0 -0.02,0 -0.02,0 0.7,-3.63 1.39,-7.27 2.11,-10.91 -8.21,-20.65 -11.26,-41.7 0.19,-61.83 12.88,-22.66 19.83,-51.37 41.84,-66.09 93.49,-62.46 66.67,-217.67 66.67,-217.67 l 168.24,-96.38 -28.37,0 c -3.35,0 -6.44,-1.74 -8.2,-4.6 -1.74,-2.82 -1.91,-6.39 -0.4,-9.35 l 44.17,-88.36 -32.26,-83.61 c -0.69,-1.76 -0.83,-3.71 -0.4,-5.58 l 97.53,-306.61 c -84.52,165.39 -222.08,435.61 -260.52,516.91 -20.2,42.79 6.46,153.71 6.46,153.71 0,0 -41.79,-22.68 -56.96,-39.23 -39.25,-42.84 -81.7,-79.4 -131.93,-110.21 -69.023,-42.34 -140.496,-76.32 -217.703,-99.26 -38.313,-11.42 -53.059,-37.81 -54.231,-76.92 -1.843,-61.16 3.758,-121.84 -14.468,-183.46 -14.11,-47.72 -7.446,-101.5 -10.735,-152.53 -5.398,-84.21 -11.347,-168.34 -17.054,-252.49 417.491,0 835.011,0 1252.511,0 -2.33,23.53 -4.1,47.15 -7.24,70.59"
         id="path100"
         style="fill:#696667;fill-opacity:1;fill-rule:evenodd;stroke:none" /><path
         d="m 3712.33,1577.87 c -3.2,50.14 3.32,103.01 -10.54,149.9 -17.93,60.57 -12.41,120.21 -14.21,180.34 -1.16,38.42 -15.66,64.38 -53.32,75.56 -75.88,22.56 -146.13,55.95 -213.95,97.58 -49.39,30.29 -91.08,66.24 -129.66,108.31 -14.93,16.27 -56,38.56 -56,38.56 0,0 26.2,-109.02 6.33,-151.05 -48.74,-103.16 -55.79,-117.94 -224.8,-447.46 l 49.32,235.4 c 0.41,1.82 0.27,3.74 -0.4,5.48 l -36.44,82.15 45,86.85 c 1.48,2.92 1.31,6.42 -0.41,9.22 -1.73,2.78 -4.78,4.48 -8.06,4.48 l -22.32,0 133.17,73.32 c 17.94,11.73 39.15,21.27 46.18,44.65 0.97,3.29 1.11,6.92 1.13,10.42 0.11,14.85 -1.7,29.83 0.04,44.58 10.66,91.27 40.94,151.97 47.1,170.57 5.02,15.22 15.19,26.24 21.37,39.96 58.35,129.48 6.69,115.85 11.07,133.79 3.28,13.48 4.8,26.36 4.84,39.74 0.8,311.46 -196.99,237.85 -203.47,243.33 -155.85,132.62 -328.32,26.18 -384.53,-147.26 -47.14,-135.71 -8.87,-271.44 -8.87,-271.44 0,0 1.02,68.45 3.22,61.14 0.8,-2.66 1.73,-5.24 2.71,-7.79 4.56,-45.37 15.84,-80.73 15.84,-80.73 -1.2,9.85 -4.53,32.29 -5.91,60.2 11.17,-19.22 46.64,-21.21 71.24,-110.57 0.52,-1.86 28.73,-113.66 70.34,-161.86 9.5,-10.98 21.23,-19.96 27.58,-33.87 3.64,-7.9 5.01,-14.5 0.19,-21.72 -1.54,-2.35 -5.48,-7.2 -5.48,-7.2 l 69.02,-79.26 -15.24,0 c -2.72,0 -5.33,-1.2 -7.12,-3.22 -1.8,-2.06 -2.63,-4.79 -2.27,-7.5 l 10.02,-86.89 -49.51,-76.66 c -1.01,-1.44 -1.62,-3.12 -1.73,-4.88 l -11.05,-223.85 c -18.42,121.96 -36.84,266.62 -35.1,347.69 3.41,117.73 35.81,165.84 35.81,165.84 -46.92,-23.79 -92.91,-48.59 -140.29,-70.39 -17.61,-8.11 -38.29,-11.21 -57.92,-13.03 -63.55,-5.89 -96.17,-26.68 -109.7,-91.36 -10.97,-52.61 -8.23,-108.08 -11.39,-162.26 -1.31,-22.87 -3,-45.79 -2.8,-68.65 0.21,-29.97 2.21,-59.93 3.3,-89.87 0.39,-10.32 2.52,-21.14 0.22,-30.85 -16.59,-69.43 -34.05,-138.63 -51.37,-207.86 -2.53,-10.2 -6.94,-20.04 -8.32,-30.37 -3.1,-23.04 -4.82,-46.24 -7.12,-69.4 410.34,0 820.7,0 1231.04,0 -5.62,82.73 -11.46,165.44 -16.78,248.19"
         id="path102"
         style="fill:#696667;fill-opacity:1;fill-rule:nonzero;stroke:none" /><path
         d="m 5546.38,1564.22 c -3.09,48.28 3.2,99.14 -10.15,144.27 -17.26,58.29 -11.93,115.67 -13.68,173.52 -1.11,36.97 -15.06,61.96 -51.3,72.74 -73.01,21.7 -140.62,53.82 -205.87,93.88 -47.51,29.13 -87.65,63.72 -124.76,104.23 -14.36,15.65 -53.91,37.08 -53.91,37.08 0,0 25.23,-104.89 6.12,-145.37 -27.5,-58.16 -76.14,-218.69 -116.98,-361.11 l 23.35,226.29 c 0.18,1.75 -0.18,3.61 -1.03,5.28 l -40.21,79.04 31.51,83.57 c 1.07,2.83 0.5,6.18 -1.49,8.87 -1.99,2.69 -5.13,4.31 -8.29,4.31 l -16.9,0 c 76.29,37.47 115.13,165.14 116.49,166.83 0.95,2.69 1.29,-40.47 0.1,-43.5 0,0 -0.03,-0.06 -0.1,-0.14 -2.65,-7.55 63.21,-65.51 159.75,3.34 17.48,12.46 -50.97,23.94 -43.08,31.22 3.5,3.26 36.97,32.25 37.24,39.81 0.59,15.44 5.44,30.48 8.23,45.41 2.52,13.63 3.36,28.84 10.19,42.14 5.4,10.53 6.84,46.11 2.8,58.09 -7.58,22.43 -11.58,45.78 -14.07,69.23 -1.39,13.13 0.41,26.57 3.8,39.42 2.17,8.15 2.17,15.5 -0.37,23.65 -5.67,18.13 -12.84,35.23 -25.81,49.48 -12.92,14.23 -23.75,30.39 -31.87,47.35 -15.17,31.76 -36.17,35.98 -50.35,68.16 -3.22,7.3 -8.91,12.68 -13.61,18.82 -3.2,4.14 -6.38,8.15 -7.39,13.47 -0.7,3.73 -3.2,6.02 -6.05,8.4 -10.8,8.96 -19.34,20.05 -26.51,31.93 -9.32,15.45 -22.66,26.49 -37.51,35.67 -8.17,5.03 -11,11.68 -18.28,19.54 -47.74,51.55 -121.8,22.47 -121.8,-9.84 -77.02,87.25 -128.72,-4.67 -136.87,-9.7 -14.87,-9.18 -134.05,-100.17 -195.67,-323.44 -6.27,-22.72 -6.49,-83.94 -14.08,-106.36 -4.03,-12 -2.61,-23.34 2.79,-33.87 6.85,-13.3 7.66,-28.51 10.2,-42.14 2.79,-14.93 7.65,-29.97 8.22,-45.41 0.29,-7.56 4.85,-15.47 8.34,-18.72 7.89,-7.3 6.54,-12.95 2.16,-19.61 -4.08,-6.24 -9.28,-11.72 -17.25,-13.26 -1.57,-0.32 -9.68,-5.8 -13.24,-5.68 -0.95,0.04 -1.89,0.4 -2.86,0.49 -2.53,0.24 -5.55,1.25 -6.84,-1.85 -1.28,-3.06 1.12,-4.8 3.41,-6.12 5.91,-3.33 11.74,-8.05 18.59,-7.9 11.19,0.29 21.54,-0.67 31.4,-6.71 131.57,-80.55 130.1,5.13 130.1,5.13 0,0 -0.74,41.94 0,43.45 -0.09,-1.17 5.44,-16.83 23.74,-47.79 0,0 60.18,-88.44 123.73,-118.99 l -21.93,0 c -3.15,0 -6.29,-1.62 -8.29,-4.31 -1.97,-2.69 -2.55,-6.04 -1.47,-8.87 l 31.5,-83.57 -40.2,-79.04 c -0.86,-1.67 -1.21,-3.53 -1.03,-5.28 l 23.34,-226.29 c -40.83,142.42 -89.48,302.95 -116.97,361.11 -19.13,40.48 6.1,145.37 6.1,145.37 0,0 -39.52,-21.43 -53.89,-37.08 -37.11,-40.51 -77.26,-75.1 -124.77,-104.23 -65.26,-40.06 -132.86,-72.18 -205.87,-93.88 -36.24,-10.78 -50.19,-35.77 -51.3,-72.74 -1.73,-57.85 3.58,-115.23 -13.66,-173.52 -13.36,-45.13 -7.06,-95.99 -10.15,-144.27 -5.11,-79.58 -10.75,-159.18 -16.16,-238.79 l 1286.81,0 c -5.41,79.61 -11.04,159.21 -16.14,238.79"
         id="path104"
         style="fill:#696667;fill-opacity:1;fill-rule:evenodd;stroke:none" /><path
         d="m 6944.3,2095.64 -50.08,-384.76 -169.57,374.3 -55.92,-58.25 -143.94,152.35 89.63,58.83 134.07,-82 105.83,-228.38 58.18,300.39 22.11,-18.9 c -1.51,0.71 -2.9,1.37 -4.13,2 l 126.62,-142.65 -112.8,27.07 z m 330.39,-68.53 c -7.7,36.86 -93.31,80.37 -178.1,116.51 -19.92,69.76 -22.89,185.29 -10.75,266.31 41.08,274.58 -66.76,445.57 -211.65,454.13 -39.8,2.37 -26.51,26.19 -86.35,27.85 -276.45,13.16 -337.86,-501.43 -351.97,-763.34 -76.27,-42.65 -169.76,-90.65 -224.67,-106.98 -39.67,-11.8 -99.06,-140.88 -88.25,-688.79 432.17,0 726.38,0 1158.56,0 101.94,0 4.75,638.92 -6.82,694.31"
         id="path106"
         style="fill:#696667;fill-opacity:1;fill-rule:evenodd;stroke:none" /><path
         d="m 1899.71,4008.62 c -1.09,36.43 -14.54,62.14 -50.58,71.67 -155.16,41 -289.31,155.37 -325.9,195.27 -14.15,15.46 -51.58,51.95 -51.58,51.95 0,0 4.66,-41.22 8.53,-72.05 3.85,-30.84 62.42,-118.11 62.42,-118.11 l -133.8,92.26 -101.34,-603.37 -104.5,600.24 -129.1,-89.13 c 0,0 58.55,87.27 62.43,118.11 3.85,30.83 8.52,72.05 8.52,72.05 0,0 -37.41,-36.49 -51.57,-51.95 -36.6,-39.9 -170.752,-154.27 -325.912,-195.27 -36.051,-9.53 -49.492,-35.24 -50.574,-71.67 -1.711,-57.04 -34.051,-470.16 -39.399,-548.62 l 1261.755,0 c -5.35,78.46 -37.7,491.58 -39.4,548.62"
         id="path108"
         style="fill:#696667;fill-opacity:1;fill-rule:nonzero;stroke:none" /><path
         d="m 1078.11,4496.62 c 12.62,-11.01 72.54,-118.4 68.58,-141.58 -5.69,-33.2 4.8,-58.8 23.63,-83.72 25.07,-33.27 52.01,-65.46 73.83,-100.78 19.27,-31.1 64.08,-95.4 64.08,-95.4 0,0 44.83,64.3 64.08,95.4 21.43,34.64 46.61,79.06 85.56,161.93 60.56,-21.82 105.54,-15.45 132.65,-7.77 -31.83,1.86 -62.58,14.34 -89.41,30.11 22.79,-0.32 41.28,3.25 55.12,7.16 -25.94,1.52 -51.16,10.11 -74.13,21.78 12.68,26.65 24.51,51.34 24.51,51.34 15.82,40.51 22.28,53.29 31.74,61.53 40.01,34.98 49.01,101.18 58.58,147.91 5.44,26.66 6.14,52.03 -30.67,48.97 0,37.31 1.55,51.27 -0.3,85.54 -7.39,138.2 -57.89,205.92 -176.66,240.92 -27.12,7.99 -54.12,10.61 -81.07,9.44 -26.94,1.17 -53.95,-1.45 -81.09,-9.44 -118.76,-35 -169.24,-102.72 -176.65,-240.92 -1.85,-34.27 -0.29,-48.23 -0.29,-85.54 -36.8,3.06 -36.1,-22.31 -30.64,-48.97 9.55,-46.73 18.54,-112.93 58.55,-147.91"
         id="path110"
         style="fill:#696667;fill-opacity:1;fill-rule:nonzero;stroke:none" /><path
         d="m 7296.45,3707.7 c -3.06,48.04 3.19,98.67 -10.11,143.59 -17.14,58.02 -11.87,115.14 -13.59,172.74 -1.11,36.8 -14.99,61.66 -51.07,72.38 -72.68,21.6 -139.98,53.59 -204.96,93.47 -47.27,28.99 -87.23,63.43 -124.17,103.74 -14.28,15.58 -53.65,36.93 -53.65,36.93 0,0 25.11,-104.41 6.08,-144.71 -26.65,-56.37 -73.24,-209.28 -113.18,-348.14 l 19.99,193.74 c 0.18,1.76 -0.2,3.6 -1.03,5.27 l -40.04,78.68 31.36,83.19 c 1.06,2.81 0.5,6.15 -1.46,8.83 -2.01,2.68 -5.12,4.3 -8.26,4.3 l -26.68,0 124.84,69.23 -9.25,39.5 c 0,0 50.08,34.17 62.51,107.33 1.4,8.27 1.44,13.27 10.73,17.66 18.28,8.54 27.02,26.6 36.21,43.94 13.35,25.2 20.22,52.72 30.32,79.07 7.5,19.6 -9.13,47.43 -29.44,49.45 -0.82,0.07 -1.48,0.25 -2.15,0.42 6.76,24.63 12.42,57.08 17.53,87.41 3.29,20.96 4.66,67.6 -0.5,92.42 -26.23,146.64 -114.37,176.77 -123.65,181.47 6.55,1.97 15.83,-1.86 21.98,-4.72 0.45,0.77 -13.49,12.92 -23.37,19.38 -16.64,10.91 -41.49,9.8 -60.11,9.32 -4.2,-0.12 -9.75,0.7 -12.48,3.24 -20.64,19.24 -43.46,18.87 -68.61,8.27 -5.36,6.28 8.06,19.9 8.06,19.9 0,0 -34.87,-24.16 -41.99,-27.86 -25.51,-13.12 -20.98,20.51 -20.98,20.51 0,0 -47.71,-28.86 -52.58,-36.18 -31.83,-3.17 -57.93,-12.58 -68.34,-16.65 5.49,0 10.94,0 18.09,0 -16.04,-3.07 -29.58,-8.71 -38.09,-13.34 13.79,1.03 18.85,-2.27 20.7,-3.93 -31.34,-6.46 -73.05,-33.55 -89.57,-68.36 -2.41,-5.05 -8.6,-8.21 -10.89,-13.48 -4.77,-10.95 -14.75,-58.77 -14.07,-99.02 -1.73,-26.14 2.79,-81.39 27.39,-156.94 -1.28,-0.94 -3.03,-1.62 -5.45,-1.86 -20.3,-2.02 -36.93,-29.85 -29.44,-49.45 10.09,-26.35 16.98,-53.87 30.31,-79.07 9.19,-17.34 17.95,-35.4 36.2,-43.94 9.32,-4.39 9.35,-9.39 10.75,-17.66 12.44,-73.16 62.53,-107.33 62.53,-107.33 l -9.28,-39.5 124.84,-69.23 -26.68,0 c -3.14,0 -6.26,-1.62 -8.26,-4.3 -1.97,-2.68 -2.53,-6.02 -1.47,-8.83 l 31.39,-83.19 -40.04,-78.68 c -0.85,-1.67 -1.22,-3.51 -1.03,-5.27 l 20,-193.74 c -39.95,138.86 -86.53,291.77 -113.19,348.14 -19.03,40.3 6.08,144.71 6.08,144.71 0,0 -39.36,-21.35 -53.66,-36.93 -36.93,-40.31 -76.9,-74.75 -124.19,-103.74 -64.97,-39.88 -132.26,-71.87 -204.94,-93.47 -36.08,-10.72 -49.95,-35.58 -51.05,-72.38 -1.73,-57.6 3.54,-114.72 -13.61,-172.74 -13.3,-44.92 -7.04,-95.55 -10.12,-143.59 -5.07,-79.25 -10.68,-158.46 -16.05,-237.7 l 1280.91,0 c -5.38,79.24 -10.98,158.45 -16.07,237.7"
         id="path112"
         style="fill:#696667;fill-opacity:1;fill-rule:evenodd;stroke:none" /><path
         d="m 3661.15,5881.46 c -3.28,51.49 3.42,105.73 -10.85,153.87 -18.37,62.16 -12.7,123.36 -14.56,185.07 -1.17,39.44 -16.06,66.07 -54.72,77.58 -77.86,23.14 -149.98,57.41 -219.59,100.13 -50.67,31.08 -93.48,67.98 -133.07,111.17 -15.31,16.71 -57.48,39.58 -57.48,39.58 0,0 26.9,-111.88 6.51,-155.05 -28.28,-59.85 -77.55,-221.18 -120.08,-368.85 l 20.21,195.87 c 0.21,1.88 -0.18,3.85 -1.11,5.64 l -42.88,84.32 33.61,89.12 c 1.14,3.02 0.53,6.6 -1.57,9.45 -2.13,2.88 -5.47,4.6 -8.85,4.6 l -33.85,0 133.2,93.54 0,44.51 c 43.73,45.07 76.2,155.75 76.2,155.75 0,0 13.09,1.15 12.53,30.09 -0.59,28.94 48.95,140.8 10.68,159.58 0,0 -8.18,1.04 -1.44,27.22 44.98,174.6 -28.06,240.79 -90.26,242.13 -11.89,20.29 -25.52,25.57 -25.52,25.57 8.13,-4.81 15.65,-15.04 21.25,-24.34 l -5.01,1.71 c -39.1,45.16 -75.73,48.27 -75.73,48.27 20.78,-5.29 44.04,-24.66 60.55,-40.78 -20.22,14.86 -94.93,64.54 -190.58,64.54 -0.12,0 -0.26,0 -0.38,0 -0.11,0 -0.23,0 -0.35,0 -98.82,0 -276.99,-87.46 -217.86,-317.1 6.76,-26.18 -1.42,-27.22 -1.42,-27.22 -38.28,-18.78 11.26,-130.64 10.7,-159.58 -0.58,-28.94 12.5,-30.09 12.5,-30.09 0,0 32.47,-110.68 76.21,-155.75 l 0,-44.51 133.21,-93.54 -33.87,0 c -3.37,0 -6.7,-1.72 -8.82,-4.6 -2.14,-2.85 -2.73,-6.43 -1.6,-9.45 l 33.63,-89.12 -42.89,-84.32 c -0.92,-1.79 -1.3,-3.76 -1.12,-5.64 l 20.22,-195.87 c -42.54,147.67 -91.8,309 -120.07,368.85 -20.39,43.17 6.5,155.05 6.5,155.05 0,0 -42.16,-22.87 -57.49,-39.58 -39.58,-43.19 -82.39,-80.09 -133.07,-111.17 -69.6,-42.72 -141.7,-76.99 -219.59,-100.13 -38.65,-11.51 -53.52,-38.14 -54.71,-77.58 -1.86,-61.71 3.79,-122.91 -14.6,-185.07 -14.22,-48.14 -7.53,-102.38 -10.82,-153.87 -5.44,-84.91 -11.45,-169.8 -17.21,-254.7 l 1372.54,0 c -5.78,84.9 -11.79,169.79 -17.23,254.7"
         id="path114"
         style="fill:#696667;fill-opacity:1;fill-rule:nonzero;stroke:none" /><path
         d="m 2420.86,4277.49 0,-128.91 64.94,0 c 14.32,0 26.32,1.63 36.01,4.88 9.68,3.25 17.5,7.81 23.44,13.67 5.94,5.86 10.21,12.9 12.82,21.12 2.6,8.22 3.9,17.29 3.9,27.22 0,9.11 -1.34,17.5 -4.03,25.15 -2.68,7.65 -7.08,14.2 -13.18,19.65 -6.1,5.45 -14.2,9.69 -24.29,12.7 -10.09,3.01 -22.63,4.52 -37.6,4.52 l -62.01,0 z m 0,38.08 59.57,0 c 13.67,0 25.15,1.22 34.42,3.66 9.28,2.45 16.77,6.06 22.46,10.87 5.7,4.8 9.81,10.82 12.33,18.06 2.52,7.24 3.79,15.67 3.79,25.27 0,19.53 -6.27,33.53 -18.8,42 -12.54,8.46 -32.31,12.69 -59.33,12.69 l -54.44,0 0,-112.55 z m -45.41,151.37 97.41,0 c 20.83,0 39.19,-1.59 55.05,-4.76 15.87,-3.18 29.14,-8.3 39.8,-15.38 10.66,-7.08 18.68,-16.36 24.05,-27.83 5.37,-11.48 8.05,-25.6 8.05,-42.36 0,-10.1 -1.58,-19.53 -4.76,-28.32 -3.17,-8.79 -7.77,-16.53 -13.79,-23.2 -6.03,-6.67 -13.47,-12.25 -22.34,-16.72 -8.87,-4.48 -18.92,-7.45 -30.15,-8.91 l 0,-2.44 c 11.23,-1.96 21.77,-4.76 31.62,-8.43 9.84,-3.66 18.43,-8.71 25.75,-15.13 7.33,-6.43 13.1,-14.53 17.34,-24.29 4.22,-9.77 6.34,-21.66 6.34,-35.65 0,-16.28 -2.64,-30.8 -7.93,-43.58 -5.29,-12.78 -12.94,-23.6 -22.95,-32.47 -10.01,-8.87 -22.18,-15.67 -36.5,-20.39 -14.33,-4.72 -30.52,-7.07 -48.58,-7.07 l -118.41,0 0,356.93"
         id="path116"
         style="fill:#696667;fill-opacity:1;fill-rule:nonzero;stroke:none" /><path
         d="m 2941.37,4467.43 0,-231.45 c 0,-18.55 -2.69,-35.81 -8.06,-51.76 -5.37,-15.95 -13.47,-29.78 -24.29,-41.5 -10.83,-11.72 -24.42,-20.92 -40.77,-27.59 -16.36,-6.67 -35.61,-10.01 -57.74,-10.01 -20.84,0 -39.23,3.14 -55.18,9.4 -15.95,6.27 -29.34,15.18 -40.16,26.74 -10.82,11.55 -19,25.43 -24.54,41.62 -5.53,16.19 -8.3,34.22 -8.3,54.08 l 0,229.98 45.66,0 0,-232.42 c 0,-28.49 7.03,-50.54 21.12,-66.17 14.07,-15.62 35.35,-23.43 63.84,-23.43 14.48,0 26.93,2.19 37.35,6.59 10.42,4.39 18.96,10.57 25.64,18.55 6.67,7.98 11.63,17.5 14.89,28.57 3.25,11.06 4.96,23.19 5.13,36.38 l 0,232.42 45.41,0"
         id="path118"
         style="fill:#696667;fill-opacity:1;fill-rule:nonzero;stroke:none" /><path
         d="m 3223.1,4205.46 c 0,-15.79 -2.8,-29.9 -8.42,-42.35 -5.61,-12.46 -13.63,-23 -24.05,-31.62 -10.42,-8.63 -23.11,-15.18 -38.08,-19.65 -14.98,-4.48 -31.82,-6.72 -50.54,-6.72 -18.07,0 -34.95,1.43 -50.66,4.28 -15.71,2.84 -28.85,7.03 -39.43,12.57 l 0,43.46 c 5.54,-2.61 11.84,-5.18 18.92,-7.7 7.08,-2.52 14.53,-4.76 22.34,-6.71 7.82,-1.95 15.87,-3.54 24.17,-4.76 8.3,-1.22 16.52,-1.83 24.66,-1.83 26.04,0 45.29,4.88 57.74,14.65 12.45,9.76 18.68,23.76 18.68,41.99 0,8.79 -1.18,16.44 -3.54,22.95 -2.37,6.51 -6.52,12.49 -12.45,17.94 -5.95,5.45 -13.88,10.75 -23.81,15.87 -9.93,5.13 -22.46,10.7 -37.6,16.73 -14.48,5.69 -27.06,11.91 -37.72,18.67 -10.66,6.76 -19.45,14.36 -26.36,22.83 -6.92,8.46 -12.05,18.07 -15.38,28.81 -3.34,10.74 -5.01,22.95 -5.01,36.62 0,14.32 2.6,27.1 7.81,38.33 5.21,11.23 12.53,20.71 21.98,28.44 9.44,7.73 20.71,13.63 33.81,17.7 13.1,4.07 27.54,6.11 43.34,6.11 19.36,0 36.78,-1.84 52.24,-5.5 15.46,-3.66 29.22,-8.34 41.26,-14.04 l -16.36,-38.08 c -10.58,4.72 -22.58,8.83 -36.01,12.33 -13.42,3.49 -27.3,5.25 -41.62,5.25 -19.86,0 -35.24,-4.6 -46.15,-13.8 -10.9,-9.2 -16.35,-21.6 -16.35,-37.23 0,-9.28 1.22,-17.29 3.66,-24.05 2.44,-6.75 6.51,-12.86 12.21,-18.31 5.69,-5.45 13.22,-10.58 22.58,-15.38 9.35,-4.8 20.87,-9.89 34.55,-15.26 14.8,-5.86 27.78,-11.88 38.94,-18.06 11.14,-6.19 20.46,-13.19 27.95,-21 7.49,-7.81 13.14,-16.84 16.97,-27.1 3.82,-10.25 5.73,-22.38 5.73,-36.38"
         id="path120"
         style="fill:#696667;fill-opacity:1;fill-rule:nonzero;stroke:none" /><path
         d="m 3395.47,4110.01 -129.4,0 0,24.9 42,10.01 0,287.11 -42,10.01 0,24.9 129.4,0 0,-24.9 -41.99,-10.01 0,-287.11 41.99,-10.01 0,-24.9"
         id="path122"
         style="fill:#696667;fill-opacity:1;fill-rule:nonzero;stroke:none" /><path
         d="m 3731.41,4110.01 -52.49,0 -175.54,295.41 -1.95,0 c 0.97,-12.54 1.78,-24.99 2.44,-37.36 0.65,-10.58 1.17,-21.65 1.58,-33.2 0.41,-11.56 0.61,-21.97 0.61,-31.25 l 0,-193.6 -41.99,0 0,356.93 52,0 174.81,-293.95 1.71,0 c -0.49,12.37 -1.06,24.58 -1.71,36.62 -0.17,5.21 -0.37,10.54 -0.61,16 -0.25,5.44 -0.49,10.9 -0.73,16.35 -0.25,5.45 -0.41,10.7 -0.49,15.75 -0.09,5.04 -0.12,9.68 -0.12,13.92 l 0,195.31 42.48,0 0,-356.93"
         id="path124"
         style="fill:#696667;fill-opacity:1;fill-rule:nonzero;stroke:none" /><path
         d="m 4013.88,4110.01 -185.31,0 0,356.93 185.31,0 0,-40.04 -139.9,0 0,-110.35 130.62,0 0,-39.55 -130.62,0 0,-126.96 139.9,0 0,-40.03"
         id="path126"
         style="fill:#696667;fill-opacity:1;fill-rule:nonzero;stroke:none" /><path
         d="m 4280.48,4205.46 c 0,-15.79 -2.8,-29.9 -8.43,-42.35 -5.61,-12.46 -13.63,-23 -24.04,-31.62 -10.42,-8.63 -23.12,-15.18 -38.09,-19.65 -14.98,-4.48 -31.82,-6.72 -50.54,-6.72 -18.06,0 -34.95,1.43 -50.65,4.28 -15.71,2.84 -28.86,7.03 -39.43,12.57 l 0,43.46 c 5.52,-2.61 11.83,-5.18 18.92,-7.7 7.07,-2.52 14.52,-4.76 22.34,-6.71 7.81,-1.95 15.87,-3.54 24.17,-4.76 8.3,-1.22 16.51,-1.83 24.65,-1.83 26.04,0 45.29,4.88 57.75,14.65 12.44,9.76 18.67,23.76 18.67,41.99 0,8.79 -1.18,16.44 -3.53,22.95 -2.37,6.51 -6.52,12.49 -12.47,17.94 -5.93,5.45 -13.87,10.75 -23.79,15.87 -9.94,5.13 -22.47,10.7 -37.6,16.73 -14.49,5.69 -27.06,11.91 -37.73,18.67 -10.65,6.76 -19.44,14.36 -26.36,22.83 -6.92,8.46 -12.05,18.07 -15.38,28.81 -3.34,10.74 -5,22.95 -5,36.62 0,14.32 2.59,27.1 7.81,38.33 5.2,11.23 12.53,20.71 21.97,28.44 9.43,7.73 20.71,13.63 33.82,17.7 13.09,4.07 27.54,6.11 43.33,6.11 19.36,0 36.78,-1.84 52.24,-5.5 15.46,-3.66 29.21,-8.34 41.26,-14.04 l -16.35,-38.08 c -10.59,4.72 -22.59,8.83 -36.01,12.33 -13.44,3.49 -27.31,5.25 -41.63,5.25 -19.86,0 -35.24,-4.6 -46.14,-13.8 -10.91,-9.2 -16.36,-21.6 -16.36,-37.23 0,-9.28 1.22,-17.29 3.66,-24.05 2.44,-6.75 6.51,-12.86 12.21,-18.31 5.69,-5.45 13.22,-10.58 22.58,-15.38 9.36,-4.8 20.88,-9.89 34.55,-15.26 14.8,-5.86 27.79,-11.88 38.94,-18.06 11.15,-6.19 20.46,-13.19 27.95,-21 7.48,-7.81 13.15,-16.84 16.98,-27.1 3.81,-10.25 5.73,-22.38 5.73,-36.38"
         id="path128"
         style="fill:#696667;fill-opacity:1;fill-rule:nonzero;stroke:none" /><path
         d="m 4540,4205.46 c 0,-15.79 -2.8,-29.9 -8.43,-42.35 -5.6,-12.46 -13.63,-23 -24.04,-31.62 -10.42,-8.63 -23.12,-15.18 -38.09,-19.65 -14.98,-4.48 -31.82,-6.72 -50.53,-6.72 -18.07,0 -34.96,1.43 -50.66,4.28 -15.71,2.84 -28.86,7.03 -39.43,12.57 l 0,43.46 c 5.53,-2.61 11.83,-5.18 18.92,-7.7 7.07,-2.52 14.53,-4.76 22.34,-6.71 7.81,-1.95 15.87,-3.54 24.17,-4.76 8.3,-1.22 16.51,-1.83 24.66,-1.83 26.03,0 45.28,4.88 57.74,14.65 12.44,9.76 18.67,23.76 18.67,41.99 0,8.79 -1.18,16.44 -3.53,22.95 -2.37,6.51 -6.52,12.49 -12.46,17.94 -5.94,5.45 -13.88,10.75 -23.8,15.87 -9.93,5.13 -22.46,10.7 -37.6,16.73 -14.49,5.69 -27.06,11.91 -37.73,18.67 -10.65,6.76 -19.44,14.36 -26.36,22.83 -6.92,8.46 -12.04,18.07 -15.37,28.81 -3.34,10.74 -5.01,22.95 -5.01,36.62 0,14.32 2.59,27.1 7.81,38.33 5.2,11.23 12.53,20.71 21.97,28.44 9.44,7.73 20.71,13.63 33.82,17.7 13.1,4.07 27.54,6.11 43.33,6.11 19.37,0 36.78,-1.84 52.25,-5.5 15.46,-3.66 29.21,-8.34 41.26,-14.04 l -16.36,-38.08 c -10.59,4.72 -22.59,8.83 -36.01,12.33 -13.43,3.49 -27.31,5.25 -41.63,5.25 -19.86,0 -35.24,-4.6 -46.14,-13.8 -10.91,-9.2 -16.36,-21.6 -16.36,-37.23 0,-9.28 1.22,-17.29 3.66,-24.05 2.45,-6.75 6.51,-12.86 12.21,-18.31 5.69,-5.45 13.22,-10.58 22.58,-15.38 9.36,-4.8 20.88,-9.89 34.55,-15.26 14.8,-5.86 27.79,-11.88 38.95,-18.06 11.14,-6.19 20.45,-13.19 27.94,-21 7.48,-7.81 13.15,-16.84 16.98,-27.1 3.82,-10.25 5.73,-22.38 5.73,-36.38"
         id="path130"
         style="fill:#696667;fill-opacity:1;fill-rule:nonzero;stroke:none" /><path
         d="m 4758.99,4110.01 -108.15,312.5 -1.95,0 c 0.97,-12.05 1.78,-24.01 2.44,-35.89 0.64,-10.26 1.18,-21.04 1.58,-32.35 0.41,-11.32 0.61,-21.61 0.61,-30.89 l 0,-213.37 -41.99,0 0,356.93 67.39,0 100.58,-291.02 1.47,0 101.07,291.02 67.38,0 0,-356.93 -45.41,0 0,216.55 c 0,8.46 0.16,18.14 0.49,29.05 0.32,10.9 0.73,21.32 1.22,31.25 0.65,11.55 1.22,23.27 1.71,35.16 l -1.95,0 -109.13,-312.01 -37.36,0"
         id="path132"
         style="fill:#696667;fill-opacity:1;fill-rule:nonzero;stroke:none" /><path
         d="m 5202.11,4260.88 -36.13,103.52 c -0.98,2.93 -2.16,6.51 -3.54,10.74 -1.39,4.23 -2.81,8.79 -4.28,13.67 -1.46,4.89 -2.93,9.97 -4.39,15.26 -1.47,5.29 -2.85,10.46 -4.15,15.51 -1.14,-5.05 -2.44,-10.26 -3.91,-15.63 -1.46,-5.37 -2.93,-10.54 -4.39,-15.5 -1.47,-4.97 -2.89,-9.52 -4.27,-13.67 -1.39,-4.16 -2.57,-7.62 -3.54,-10.38 l -35.41,-103.52 104.01,0 z m 53.47,-150.87 -39.07,110.59 -133.05,0 -39.55,-110.59 -45.9,0 131.1,358.39 41.5,0 131.35,-358.39 -46.38,0"
         id="path134"
         style="fill:#696667;fill-opacity:1;fill-rule:nonzero;stroke:none" /><path
         d="m 5617.88,4110.01 -52.49,0 -175.54,295.41 -1.95,0 c 0.98,-12.54 1.79,-24.99 2.44,-37.36 0.65,-10.58 1.18,-21.65 1.58,-33.2 0.41,-11.56 0.62,-21.97 0.62,-31.25 l 0,-193.6 -41.99,0 0,356.93 52,0 174.8,-293.95 1.71,0 c -0.49,12.37 -1.06,24.58 -1.71,36.62 -0.16,5.21 -0.37,10.54 -0.6,16 -0.26,5.44 -0.49,10.9 -0.74,16.35 -0.24,5.45 -0.41,10.7 -0.49,15.75 -0.08,5.04 -0.12,9.68 -0.12,13.92 l 0,195.31 42.48,0 0,-356.93"
         id="path136"
         style="fill:#696667;fill-opacity:1;fill-rule:nonzero;stroke:none" /><path
         d="m 2638.02,3635.79 c 0,-15.95 -2.73,-30.31 -8.18,-43.08 -5.45,-12.79 -13.42,-23.69 -23.92,-32.72 -10.5,-9.03 -23.36,-16 -38.58,-20.88 -15.22,-4.88 -32.67,-7.32 -52.36,-7.32 -17.26,0 -33.9,1.79 -49.93,5.37 -16.04,3.58 -30.89,8.95 -44.56,16.11 l 0,70.31 c 7.82,-3.74 15.71,-7.36 23.68,-10.86 7.98,-3.5 16.07,-6.64 24.3,-9.4 8.21,-2.76 16.43,-4.96 24.65,-6.59 8.22,-1.63 16.4,-2.44 24.54,-2.44 8.3,0 15.42,0.93 21.36,2.81 5.94,1.87 10.75,4.47 14.41,7.81 3.66,3.33 6.34,7.33 8.05,11.96 1.71,4.64 2.57,9.72 2.57,15.26 0,6.67 -1.43,12.58 -4.28,17.7 -2.85,5.13 -6.83,9.93 -11.96,14.41 -5.12,4.47 -11.31,8.83 -18.55,13.05 -7.25,4.23 -15.34,8.72 -24.29,13.43 -7.49,3.91 -15.87,8.63 -25.15,14.16 -9.28,5.54 -18.03,12.41 -26.25,20.64 -8.22,8.21 -15.09,18.14 -20.63,29.78 -5.53,11.63 -8.3,25.59 -8.3,41.87 0,15.94 2.64,30.23 7.94,42.85 5.29,12.61 12.82,23.27 22.58,31.98 9.77,8.7 21.61,15.33 35.52,19.9 13.92,4.56 29.5,6.83 46.76,6.83 8.62,0 17.04,-0.57 25.26,-1.71 8.22,-1.14 16.36,-2.76 24.42,-4.88 8.06,-2.12 16.15,-4.72 24.29,-7.81 8.14,-3.1 16.52,-6.67 25.15,-10.75 l -24.42,-58.83 c -7.32,3.41 -14.16,6.42 -20.5,9.03 -6.35,2.61 -12.54,4.8 -18.56,6.59 -6.02,1.79 -11.92,3.14 -17.7,4.03 -5.78,0.89 -11.6,1.34 -17.46,1.34 -12.69,0 -22.42,-3.38 -29.17,-10.13 -6.76,-6.75 -10.13,-15.75 -10.13,-26.98 0,-6.02 1.01,-11.34 3.05,-15.98 2.03,-4.64 5.29,-9 9.77,-13.07 4.47,-4.07 10.25,-8.22 17.33,-12.45 7.08,-4.23 15.66,-9.03 25.76,-14.41 12.2,-6.51 23.43,-13.14 33.69,-19.89 10.25,-6.76 19.08,-14.25 26.49,-22.46 7.4,-8.22 13.14,-17.54 17.21,-27.96 4.07,-10.42 6.1,-22.62 6.1,-36.62"
         id="path138"
         style="fill:#696667;fill-opacity:1;fill-rule:nonzero;stroke:none" /><path
         d="m 2837.97,3536.67 -162.35,0 0,42.97 43.46,20.02 0,230.95 -43.46,20.03 0,42.96 162.35,0 0,-42.96 -43.45,-20.03 0,-230.95 43.45,-20.02 0,-42.97"
         id="path140"
         style="fill:#696667;fill-opacity:1;fill-rule:nonzero;stroke:none" /><path
         d="m 2899.01,3536.67 0,356.93 75.68,0 0,-294.43 129.88,0 0,-62.5 -205.56,0"
         id="path142"
         style="fill:#696667;fill-opacity:1;fill-rule:nonzero;stroke:none" /><path
         d="m 3439.05,3536.67 -75.44,0 0,154.05 -121.34,0 0,-154.05 -75.68,0 0,356.93 75.68,0 0,-139.89 121.34,0 0,139.89 75.44,0 0,-356.93"
         id="path144"
         style="fill:#696667;fill-opacity:1;fill-rule:nonzero;stroke:none" /><path
         d="m 3591.15,3715.62 c 0,-18.72 1.62,-35.51 4.88,-50.4 3.25,-14.9 8.26,-27.51 15.01,-37.85 6.76,-10.34 15.26,-18.27 25.52,-23.81 10.25,-5.53 22.46,-8.3 36.62,-8.3 14.48,0 26.89,2.77 37.23,8.3 10.33,5.54 18.8,13.47 25.39,23.81 6.59,10.34 11.47,22.95 14.65,37.85 3.17,14.89 4.76,31.68 4.76,50.4 0,18.73 -1.59,35.53 -4.76,50.42 -3.18,14.9 -8.06,27.54 -14.65,37.96 -6.59,10.42 -15.01,18.39 -25.27,23.93 -10.25,5.54 -22.54,8.3 -36.86,8.3 -14.16,0 -26.45,-2.76 -36.87,-8.3 -10.42,-5.54 -19,-13.51 -25.76,-23.93 -6.75,-10.42 -11.76,-23.06 -15.01,-37.96 -3.26,-14.89 -4.88,-31.69 -4.88,-50.42 z m 242.18,0 c 0,-27.51 -3.21,-52.56 -9.64,-75.19 -6.43,-22.63 -16.23,-41.99 -29.42,-58.11 -13.18,-16.11 -29.83,-28.56 -49.92,-37.35 -20.11,-8.79 -43.83,-13.18 -71.17,-13.18 -27.35,0 -51.07,4.39 -71.17,13.18 -20.1,8.79 -36.7,21.24 -49.8,37.35 -13.11,16.12 -22.87,35.53 -29.3,58.24 -6.43,22.7 -9.64,47.89 -9.64,75.55 0,27.67 3.21,52.78 9.64,75.33 6.43,22.53 16.24,41.78 29.42,57.73 13.18,15.95 29.82,28.28 49.93,36.99 20.09,8.7 43.9,13.06 71.41,13.06 27.34,0 51.02,-4.36 71.04,-13.06 20.02,-8.71 36.58,-21.08 49.68,-37.11 13.1,-16.03 22.87,-35.32 29.3,-57.86 6.43,-22.55 9.64,-47.73 9.64,-75.57"
         id="path146"
         style="fill:#696667;fill-opacity:1;fill-rule:nonzero;stroke:none" /><path
         d="m 4177.57,3893.6 0,-230.95 c 0,-18.56 -2.81,-35.81 -8.42,-51.76 -5.63,-15.95 -14.16,-29.79 -25.64,-41.5 -11.47,-11.72 -25.84,-20.92 -43.09,-27.59 -17.26,-6.67 -37.52,-10.01 -60.79,-10.01 -21.97,0 -41.38,3.13 -58.22,9.4 -16.85,6.26 -30.93,15.18 -42.24,26.73 -11.31,11.55 -19.9,25.43 -25.76,41.63 -5.86,16.19 -8.79,34.22 -8.79,54.07 l 0,229.98 75.44,0 0,-224.36 c 0,-13.19 1.3,-24.45 3.91,-33.81 2.6,-9.37 6.47,-17.01 11.6,-22.95 5.12,-5.95 11.51,-10.3 19.16,-13.07 7.64,-2.76 16.6,-4.15 26.85,-4.15 21.32,0 36.75,6.19 46.26,18.56 9.53,12.37 14.29,31 14.29,55.91 l 0,223.87 75.44,0"
         id="path148"
         style="fill:#696667;fill-opacity:1;fill-rule:nonzero;stroke:none" /><path
         d="m 4470.54,3536.67 -205.57,0 0,356.93 205.57,0 0,-62.01 -129.89,0 0,-78.37 120.85,0 0,-62.01 -120.85,0 0,-92.04 129.89,0 0,-62.5"
         id="path150"
         style="fill:#696667;fill-opacity:1;fill-rule:nonzero;stroke:none" /><path
         d="m 4675.13,3536.67 -75.44,0 0,293.94 -89.6,0 0,62.99 254.39,0 0,-62.99 -89.35,0 0,-293.94"
         id="path152"
         style="fill:#696667;fill-opacity:1;fill-rule:nonzero;stroke:none" /><path
         d="m 4954.42,3536.67 -75.44,0 0,293.94 -89.6,0 0,62.99 254.4,0 0,-62.99 -89.36,0 0,-293.94"
         id="path154"
         style="fill:#696667;fill-opacity:1;fill-rule:nonzero;stroke:none" /><path
         d="m 5304.28,3536.67 -205.57,0 0,356.93 205.57,0 0,-62.01 -129.89,0 0,-78.37 120.85,0 0,-62.01 -120.85,0 0,-92.04 129.89,0 0,-62.5"
         id="path156"
         style="fill:#696667;fill-opacity:1;fill-rule:nonzero;stroke:none" /><path
         d="m 5574.3,3635.79 c 0,-15.95 -2.73,-30.31 -8.18,-43.08 -5.46,-12.79 -13.43,-23.69 -23.92,-32.72 -10.51,-9.03 -23.36,-16 -38.58,-20.88 -15.22,-4.88 -32.68,-7.32 -52.37,-7.32 -17.26,0 -33.9,1.79 -49.93,5.37 -16.03,3.58 -30.88,8.95 -44.55,16.11 l 0,70.31 c 7.81,-3.74 15.7,-7.36 23.68,-10.86 7.97,-3.5 16.07,-6.64 24.29,-9.4 8.22,-2.76 16.44,-4.96 24.66,-6.59 8.22,-1.63 16.39,-2.44 24.54,-2.44 8.3,0 15.41,0.93 21.36,2.81 5.94,1.87 10.74,4.47 14.4,7.81 3.67,3.33 6.34,7.33 8.06,11.96 1.7,4.64 2.56,9.72 2.56,15.26 0,6.67 -1.42,12.58 -4.28,17.7 -2.84,5.13 -6.83,9.93 -11.95,14.41 -5.14,4.47 -11.32,8.83 -18.55,13.05 -7.25,4.23 -15.35,8.72 -24.3,13.43 -7.49,3.91 -15.87,8.63 -25.15,14.16 -9.27,5.54 -18.02,12.41 -26.24,20.64 -8.22,8.21 -15.1,18.14 -20.63,29.78 -5.54,11.63 -8.3,25.59 -8.3,41.87 0,15.94 2.64,30.23 7.94,42.85 5.28,12.61 12.81,23.27 22.58,31.98 9.76,8.7 21.6,15.33 35.52,19.9 13.91,4.56 29.49,6.83 46.75,6.83 8.62,0 17.05,-0.57 25.26,-1.71 8.23,-1.14 16.37,-2.76 24.42,-4.88 8.06,-2.12 16.15,-4.72 24.3,-7.81 8.13,-3.1 16.51,-6.67 25.14,-10.75 l -24.41,-58.83 c -7.33,3.41 -14.16,6.42 -20.51,9.03 -6.35,2.61 -12.54,4.8 -18.56,6.59 -6.02,1.79 -11.92,3.14 -17.7,4.03 -5.77,0.89 -11.59,1.34 -17.45,1.34 -12.7,0 -22.42,-3.38 -29.17,-10.13 -6.76,-6.75 -10.14,-15.75 -10.14,-26.98 0,-6.02 1.02,-11.34 3.05,-15.98 2.04,-4.64 5.29,-9 9.76,-13.07 4.49,-4.07 10.26,-8.22 17.35,-12.45 7.07,-4.23 15.65,-9.03 25.75,-14.41 12.21,-6.51 23.44,-13.14 33.69,-19.89 10.26,-6.76 19.08,-14.25 26.5,-22.46 7.4,-8.22 13.13,-17.54 17.2,-27.96 4.07,-10.42 6.11,-22.62 6.11,-36.62"
         id="path158"
         style="fill:#696667;fill-opacity:1;fill-rule:nonzero;stroke:none" /></g></g></svg>