<?xml version="1.0" encoding="UTF-8" standalone="no"?>
<!-- Created with Inkscape (http://www.inkscape.org/) -->

<svg
   xmlns:dc="http://purl.org/dc/elements/1.1/"
   xmlns:cc="http://creativecommons.org/ns#"
   xmlns:rdf="http://www.w3.org/1999/02/22-rdf-syntax-ns#"
   xmlns:svg="http://www.w3.org/2000/svg"
   xmlns="http://www.w3.org/2000/svg"
   xmlns:sodipodi="http://sodipodi.sourceforge.net/DTD/sodipodi-0.dtd"
   xmlns:inkscape="http://www.inkscape.org/namespaces/inkscape"
   version="1.1"
   width="499.99762"
   height="500"
   id="svg2"
   xml:space="preserve"
   inkscape:version="0.48.4 r9939"
   sodipodi:docname="silhoutte_02.svg"><sodipodi:namedview
     pagecolor="#ffffff"
     bordercolor="#666666"
     borderopacity="1"
     objecttolerance="10"
     gridtolerance="10"
     guidetolerance="10"
     inkscape:pageopacity="0"
     inkscape:pageshadow="2"
     inkscape:window-width="1920"
     inkscape:window-height="1014"
     id="namedview77"
     showgrid="false"
     inkscape:zoom="1.1690475"
     inkscape:cx="128.44614"
     inkscape:cy="100.93686"
     inkscape:window-x="0"
     inkscape:window-y="27"
     inkscape:window-maximized="1"
     inkscape:current-layer="svg2"
     fit-margin-top="0"
     fit-margin-left="37.53"
     fit-margin-right="37.53"
     fit-margin-bottom="0" /><metadata
     id="metadata8"><rdf:RDF><cc:Work
         rdf:about=""><dc:format>image/svg+xml</dc:format><dc:type
           rdf:resource="http://purl.org/dc/dcmitype/StillImage" /><dc:title /></cc:Work></rdf:RDF></metadata><defs
     id="defs6"><clipPath
       id="clipPath18"><path
         d="m 0,4 8000,0 0,7996 L 0,8000 0,4 z"
         id="path20"
         inkscape:connector-curvature="0" /></clipPath><radialGradient
       cx="0"
       cy="0"
       r="1"
       fx="0"
       fy="0"
       id="radialGradient22"
       gradientUnits="userSpaceOnUse"
       gradientTransform="matrix(541.804,0,0,-541.804,400.083,400.497)"
       spreadMethod="pad"><stop
         id="stop24"
         style="stop-color:#f2f0f2;stop-opacity:1"
         offset="0" /><stop
         id="stop26"
         style="stop-color:#d0cfd2;stop-opacity:1"
         offset="1" /></radialGradient></defs><path
     d="m 457.13321,421.14502 c -1.01549,-15.94127 1.05884,-32.73395 -3.35915,-47.63806 -5.68734,-19.24471 -3.93191,-38.19219 -4.50776,-57.29757 -0.36224,-12.2106 -4.97218,-20.45524 -16.94129,-24.01873 -24.10541,-7.16413 -46.43373,-17.7741 -67.98494,-31.00019 -15.6874,-9.62235 -28.94135,-21.04657 -41.19839,-34.41817 -4.73997,-5.17341 -17.79578,-12.25394 -17.79578,-12.25394 0,0 8.32822,34.63798 2.01548,48.00339 -8.75546,18.52953 -24.00942,68.4772 -37.17669,114.19575 l 6.25701,-60.64123 c 0.065,-0.58206 -0.0557,-1.19197 -0.34366,-1.74615 l -13.27563,-26.10543 10.40564,-27.5915 c 0.35295,-0.93499 0.16408,-2.04335 -0.48607,-2.92571 -0.65944,-0.89165 -1.69351,-1.42416 -2.73996,-1.42416 l -10.47993,0 41.23864,-28.95992 0,-13.78028 c 13.53879,-13.95364 23.59148,-48.22011 23.59148,-48.22011 0,0 4.05265,-0.35604 3.87928,-9.31585 -0.18279,-8.95981 15.15489,-43.5916 3.30652,-49.40588 0,0 -2.53252,-0.32198 -0.44582,-8.4273 13.92578,-54.05606 -8.68736,-74.54845 -27.94445,-74.96331 -3.68113,-6.28177 -7.90097,-7.91646 -7.90097,-7.91646 2.51704,1.48918 4.84523,4.65638 6.57898,7.53565 l -1.55109,-0.52941 C 288.16931,8.31894 276.8287,7.35608 276.8287,7.35608 283.26217,8.99386 290.46345,14.9908 295.57494,19.98155 289.31484,15.3809 266.18467,0 236.57148,0 c -0.0371,0 -0.0805,0 -0.11765,0 -0.0341,0 -0.0712,0 -0.10836,0 -30.59461,0 -85.75595,27.07757 -67.44933,98.17398 2.09289,8.10532 -0.43963,8.4273 -0.43963,8.4273 -11.85147,5.81428 3.48609,40.44607 3.31271,49.40588 -0.17957,8.95981 3.86999,9.31585 3.86999,9.31585 0,0 10.0527,34.26647 23.59458,48.22011 l 0,13.78028 41.24174,28.95992 -10.48613,0 c -1.04335,0 -2.07432,0.53251 -2.73067,1.42416 -0.66254,0.88236 -0.84521,1.99072 -0.49536,2.92571 l 10.41183,27.5915 -13.27872,26.10543 c -0.28483,0.55418 -0.40248,1.16409 -0.34675,1.74615 l 6.2601,60.64123 c -13.17036,-45.71855 -28.42123,-95.66622 -37.17361,-114.19575 -6.31273,-13.36541 2.0124,-48.00339 2.0124,-48.00339 0,0 -13.05271,7.08053 -17.79887,12.25394 -12.25395,13.3716 -25.5079,24.79582 -41.1984,34.41817 -21.54812,13.22609 -43.87024,23.83606 -67.98494,31.00019 -11.966019,3.56349 -16.569763,11.80813 -16.938186,24.01873 -0.575855,19.10538 1.173382,38.05286 -4.520151,57.29757 -4.402505,14.90411 -2.331285,31.69679 -3.349867,47.63806 C 41.173985,447.43311 39.313293,473.71501 37.53,500 l 424.93762,0 c -1.78949,-26.28499 -3.65018,-52.56689 -5.33441,-78.85498"
     id="path114"
     style="fill:#696667;fill-opacity:1;fill-rule:nonzero;stroke:none"
     inkscape:connector-curvature="0" /></svg>