<?xml version="1.0" encoding="UTF-8" standalone="no"?>
<!-- Created with Inkscape (http://www.inkscape.org/) -->

<svg
   xmlns:dc="http://purl.org/dc/elements/1.1/"
   xmlns:cc="http://creativecommons.org/ns#"
   xmlns:rdf="http://www.w3.org/1999/02/22-rdf-syntax-ns#"
   xmlns:svg="http://www.w3.org/2000/svg"
   xmlns="http://www.w3.org/2000/svg"
   xmlns:sodipodi="http://sodipodi.sourceforge.net/DTD/sodipodi-0.dtd"
   xmlns:inkscape="http://www.inkscape.org/namespaces/inkscape"
   version="1.1"
   width="500"
   height="616.10687"
   id="svg2"
   xml:space="preserve"
   inkscape:version="0.48.4 r9939"
   sodipodi:docname="silhoutte_04.svg"><sodipodi:namedview
     pagecolor="#ffffff"
     bordercolor="#666666"
     borderopacity="1"
     objecttolerance="10"
     gridtolerance="10"
     guidetolerance="10"
     inkscape:pageopacity="0"
     inkscape:pageshadow="2"
     inkscape:window-width="1920"
     inkscape:window-height="1014"
     id="namedview77"
     showgrid="false"
     inkscape:zoom="1.2233008"
     inkscape:cx="79.916861"
     inkscape:cy="96.460346"
     inkscape:window-x="0"
     inkscape:window-y="27"
     inkscape:window-maximized="1"
     inkscape:current-layer="svg2"
     fit-margin-top="0"
     fit-margin-left="0"
     fit-margin-right="0"
     fit-margin-bottom="0" /><metadata
     id="metadata8"><rdf:RDF><cc:Work
         rdf:about=""><dc:format>image/svg+xml</dc:format><dc:type
           rdf:resource="http://purl.org/dc/dcmitype/StillImage" /><dc:title /></cc:Work></rdf:RDF></metadata><defs
     id="defs6"><clipPath
       id="clipPath18"><path
         d="m 0,4 8000,0 0,7996 L 0,8000 0,4 z"
         id="path20"
         inkscape:connector-curvature="0" /></clipPath><radialGradient
       cx="0"
       cy="0"
       r="1"
       fx="0"
       fy="0"
       id="radialGradient22"
       gradientUnits="userSpaceOnUse"
       gradientTransform="matrix(541.804,0,0,-541.804,400.083,400.497)"
       spreadMethod="pad"><stop
         id="stop24"
         style="stop-color:#f2f0f2;stop-opacity:1"
         offset="0" /><stop
         id="stop26"
         style="stop-color:#d0cfd2;stop-opacity:1"
         offset="1" /></radialGradient></defs><path
     d="m 497.10977,587.92751 c -0.55888,-4.1796 -2.35127,-8.19553 -3.38121,-12.33123 -7.03387,-28.1235 -14.12762,-56.23104 -20.86209,-84.43039 -0.93811,-3.94009 -0.0718,-8.33526 0.0879,-12.51885 0.43913,-12.17156 1.2495,-24.3391 1.34132,-36.50267 0.076,-9.29334 -0.60679,-18.60264 -1.1457,-27.88798 -1.26946,-22.01178 -0.16384,-44.53853 -4.6267,-65.89963 -5.48499,-26.2792 -18.74236,-34.72223 -44.55447,-37.10944 -7.97198,-0.73453 -16.36712,-2.00797 -23.52475,-5.30136 -19.23735,-8.84623 -37.91184,-18.92198 -56.97354,-28.58657 0,0 13.14958,19.54075 14.53878,67.36068 0.83833,38.59447 -9.59272,112.67765 -18.07169,165.81092 l -6.89016,-117.69557 c -0.0479,-0.70658 -0.28742,-1.3932 -0.69859,-1.98002 l -22.02777,-31.13346 4.71054,-35.29709 c 0.13572,-1.0938 -0.19162,-2.20757 -0.92215,-3.03791 -0.72654,-0.83831 -1.7884,-1.32134 -2.89817,-1.32134 l -9.11769,0 c 15.27331,-10.23144 38.52263,-25.8321 38.50666,-25.82013 -6.01991,-16.63059 0.71058,-21.5048 4.17162,-30.48676 0,-0.004 0,-0.004 0,-0.004 0,0 8.57078,-20.34313 11.99989,-26.46283 2.51495,-4.48301 4.52692,-9.28136 6.12371,-14.29927 3.27741,-10.27937 1.85227,-20.74633 1.98001,-31.13747 0.0517,-4.36722 0.55888,-7.92807 4.47901,-10.55478 2.16365,-1.45709 3.74846,-3.64868 4.475,-6.29536 3.60876,-13.20946 3.44908,-26.85805 4.55885,-40.35893 l 0,0 c 1.56086,-6.69854 4.32731,-13.31724 1.2974,-20.30321 0,0 0,0 0,-0.007 -2.41915,-3.69258 -1.32535,-12.21946 -1.32535,-12.21946 -3.66464,-12.063755 -7.28136,-24.143495 -10.9979,-36.183311 -3.80835,-12.355178 -10.55879,-22.842105 -20.18345,-31.484749 -7.24146,-9.556801 -16.55075,-16.251348 -27.89997,-20.095634 -5.54487,-2.0878 -11.31727,-3.24948 -17.1256,-4.27142 l -0.0198,-0.007 c -3.87622,-3.9041497 -9.21349,-3.4091497 -13.90806,-3.7644397 -2.99797,-0.23553 -4.37122,-1.36924 -5.62071,-3.32931 -2.56285,-4.02392 -7.06182,-3.98799 -9.87616,0.1996 -0.1996,-0.0479 -0.41117,-0.0679 -0.61078,-0.0758 -0.32334,-1.55289 -1.61275,-1.68064 -2.85026,-2.11575997 -5.94407,-2.07982003 -13.02584,-0.31138 -16.58669,2.31135997 -2.38321,1.95607 -5.30534,1.2934 -7.98396,1.3932 -3.75645,0.15169 -7.25742,0.78243 -10.29532,3.10576 0,0.004 0,0.007 0,0.02 -0.27545,-0.0439 -0.6946,0.0838 -0.6946,0.0838 -2.18761,0.89421 -4.29138,-2.11175 -6.48696,-0.41117 -0.14372,-0.0319 -1.22953,0.0399 -1.57685,0.26348 -1.01794,-1.21756 -2.53889,-1.25748 -3.96403,-1.51297 -0.5469,-0.0239 -0.99001,0.16767 -1.36525,0.56287 l -0.0798,-0.0239 c -5.3253,0.6946 -11.10169,-0.72654 -15.74037,3.3213297 l 0.004,0 c -2.55886,3.42911 -6.4231,4.03988 -10.24343,4.73848 -1.99199,0.53891 -3.63669,1.616753 -4.8223,3.34129 0.11977,1.237515 -3.98001,8.702517 -4.09578,8.750414 -0.0838,0.275449 -14.71843,20.450926 -21.11758,32.666383 0.007,0 0.007,0 0.007,0 l -0.007,0 c -3.71253,5.385181 -6.75842,11.017864 -6.91011,17.780282 -0.21558,0.754486 -0.36327,1.512964 -0.47504,2.2874 -2.68662,13.568751 -1.85228,27.241275 -0.69861,40.921805 0.0479,0.63871 2.14769,13.71644 5.94407,18.68645 0.004,0 0.004,0 0.0123,0.004 -0.007,0 -0.007,0 -0.007,0 0.27943,1.44909 0.55487,2.90218 0.8423,4.35526 -3.27741,8.24343 -4.49496,16.64656 0.0758,24.68241 5.14167,9.04583 7.91611,20.5068 16.70245,26.383 37.32103,24.93392 26.61454,86.89346 26.61454,86.89346 l 67.16108,38.4747 -11.32524,0 c -1.33732,0 -2.57084,0.69462 -3.27344,1.83632 -0.6946,1.12574 -0.76245,2.55087 -0.15967,3.7325 l 17.63258,35.27314 -12.87813,33.37695 c -0.27545,0.70259 -0.33133,1.48103 -0.15968,2.22753 l 38.93379,122.39812 C 268.50975,452.88803 213.59606,345.01673 198.25089,312.56192 c -8.0638,-17.08168 2.57882,-61.36073 2.57882,-61.36073 0,0 -16.68249,9.05381 -22.73833,15.66054 -15.66852,17.10165 -32.61448,31.69633 -52.66619,43.99561 -27.554756,16.90093 -56.086641,30.46569 -86.907525,39.62329 -15.294476,4.55884 -21.181051,15.09368 -21.648912,30.70632 -0.735722,24.41495 1.500187,48.63828 -5.775597,73.23688 C 5.4604707,473.47343 8.1207267,494.9423 6.8077643,515.31338 4.6530528,548.92985 2.2782234,582.51438 0,616.1069 c 166.6616,0 333.3348,0 500,0 -0.93014,-9.39313 -1.63672,-18.8222 -2.8902,-28.17939"
     id="path100"
     style="fill:#696667;fill-opacity:1;fill-rule:evenodd;stroke:none"
     inkscape:connector-curvature="0" /></svg>