<?xml version="1.0" encoding="UTF-8" standalone="no"?>
<!-- Created with Inkscape (http://www.inkscape.org/) -->

<svg
   xmlns:dc="http://purl.org/dc/elements/1.1/"
   xmlns:cc="http://creativecommons.org/ns#"
   xmlns:rdf="http://www.w3.org/1999/02/22-rdf-syntax-ns#"
   xmlns:svg="http://www.w3.org/2000/svg"
   xmlns="http://www.w3.org/2000/svg"
   xmlns:sodipodi="http://sodipodi.sourceforge.net/DTD/sodipodi-0.dtd"
   xmlns:inkscape="http://www.inkscape.org/namespaces/inkscape"
   version="1.1"
   width="500"
   height="588.32166"
   id="svg2"
   xml:space="preserve"
   inkscape:version="0.48.4 r9939"
   sodipodi:docname="silhoutte_02.svg"><sodipodi:namedview
     pagecolor="#ffffff"
     bordercolor="#666666"
     borderopacity="1"
     objecttolerance="10"
     gridtolerance="10"
     guidetolerance="10"
     inkscape:pageopacity="0"
     inkscape:pageshadow="2"
     inkscape:window-width="1920"
     inkscape:window-height="1014"
     id="namedview77"
     showgrid="false"
     inkscape:zoom="1.1690475"
     inkscape:cx="89.205341"
     inkscape:cy="100.93687"
     inkscape:window-x="0"
     inkscape:window-y="27"
     inkscape:window-maximized="1"
     inkscape:current-layer="svg2"
     fit-margin-top="0"
     fit-margin-left="0"
     fit-margin-right="0"
     fit-margin-bottom="0" /><metadata
     id="metadata8"><rdf:RDF><cc:Work
         rdf:about=""><dc:format>image/svg+xml</dc:format><dc:type
           rdf:resource="http://purl.org/dc/dcmitype/StillImage" /><dc:title /></cc:Work></rdf:RDF></metadata><defs
     id="defs6"><clipPath
       id="clipPath18"><path
         d="m 0,4 8000,0 0,7996 L 0,8000 0,4 z"
         id="path20"
         inkscape:connector-curvature="0" /></clipPath><radialGradient
       cx="0"
       cy="0"
       r="1"
       fx="0"
       fy="0"
       id="radialGradient22"
       gradientUnits="userSpaceOnUse"
       gradientTransform="matrix(541.804,0,0,-541.804,400.083,400.497)"
       spreadMethod="pad"><stop
         id="stop24"
         style="stop-color:#f2f0f2;stop-opacity:1"
         offset="0" /><stop
         id="stop26"
         style="stop-color:#d0cfd2;stop-opacity:1"
         offset="1" /></radialGradient></defs><path
     d="m 493.72331,495.53747 c -1.19487,-18.75719 1.24587,-38.51619 -3.95253,-56.05301 -6.69197,-22.64416 -4.62645,-44.93858 -5.30402,-67.4188 -0.42623,-14.36752 -5.85048,-24.06852 -19.93386,-28.26148 -28.36347,-8.42962 -54.63593,-20.91377 -79.99402,-36.47616 -18.45848,-11.32208 -34.05365,-24.76431 -48.47581,-40.49791 -5.57726,-6.08726 -20.93929,-14.41852 -20.93929,-14.41852 0,0 9.79935,40.75655 2.37151,56.48287 -10.30206,21.80265 -28.25053,80.57324 -43.74371,134.36766 l 7.36227,-71.3531 c 0.0765,-0.68487 -0.0655,-1.40252 -0.40437,-2.05459 l -15.62067,-30.71678 12.24372,-32.46535 c 0.4153,-1.10015 0.19307,-2.4043 -0.57193,-3.44252 -0.77593,-1.04915 -1.99266,-1.67573 -3.22395,-1.67573 l -12.33115,0 48.52317,-34.0755 0,-16.21447 c 15.93033,-16.41846 27.75876,-56.73787 27.75876,-56.73787 0,0 4.76853,-0.41893 4.56453,-10.96143 -0.21508,-10.5425 17.8319,-51.29177 3.89059,-58.1331 0,0 -2.97987,-0.37885 -0.52457,-9.91593 16.38568,-63.604695 -10.22192,-87.716929 -32.88065,-88.205071 -4.33137,-7.391402 -9.29662,-9.314849 -9.29662,-9.314849 2.96166,1.752233 5.70111,5.478898 7.74111,8.866772 l -1.82508,-0.622927 C 294.91307,9.788425 281.56921,8.655482 281.56921,8.655482 c 7.5699,1.927083 16.04324,8.983342 22.05764,14.855675 C 296.26094,18.097833 269.04498,0 234.20082,0 c -0.0436,0 -0.0947,0 -0.13843,0 -0.0401,0 -0.0838,0 -0.1275,0 -35.99894,0 -100.90416,31.860641 -79.3638,115.51575 2.46258,9.53708 -0.51729,9.91593 -0.51729,9.91593 -13.94495,6.84133 4.10188,47.5906 3.89788,58.1331 -0.21129,10.5425 4.5536,10.96143 4.5536,10.96143 0,0 11.82844,40.31941 27.7624,56.73787 l 0,16.21447 48.52682,34.0755 -12.33844,0 c -1.22765,0 -2.44073,0.62658 -3.21302,1.67573 -0.77958,1.03822 -0.99451,2.34237 -0.58286,3.44252 l 12.25101,32.46535 -15.62432,30.71678 c -0.33514,0.65207 -0.47358,1.36972 -0.408,2.05459 l 7.3659,71.3531 C 210.74796,389.4677 192.80312,330.69711 182.50469,308.89446 c -7.42783,-15.72632 2.36788,-56.48287 2.36788,-56.48287 0,0 -15.35838,8.33126 -20.94292,14.41852 -14.41853,15.7336 -30.0137,29.17583 -48.47582,40.49791 -25.354453,15.56239 -51.619625,28.04654 -79.994025,36.47616 -14.079736,4.19296 -19.496701,13.89396 -19.930203,28.26148 -0.677576,22.48022 1.380652,44.77464 -5.318606,67.4188 C 5.0308188,457.02128 7.4679061,476.78028 6.2693983,495.53747 4.287671,526.46917 2.0982995,557.39359 0,588.32165 l 500,0 c -2.10559,-30.92806 -4.29496,-61.85248 -6.27669,-92.78418"
     id="path114"
     style="fill:#696667;fill-opacity:1;fill-rule:nonzero;stroke:none"
     inkscape:connector-curvature="0" /></svg>