<?xml version="1.0" encoding="UTF-8" standalone="no"?>
<!-- Created with Inkscape (http://www.inkscape.org/) -->

<svg
   xmlns:dc="http://purl.org/dc/elements/1.1/"
   xmlns:cc="http://creativecommons.org/ns#"
   xmlns:rdf="http://www.w3.org/1999/02/22-rdf-syntax-ns#"
   xmlns:svg="http://www.w3.org/2000/svg"
   xmlns="http://www.w3.org/2000/svg"
   xmlns:sodipodi="http://sodipodi.sourceforge.net/DTD/sodipodi-0.dtd"
   xmlns:inkscape="http://www.inkscape.org/namespaces/inkscape"
   version="1.1"
   width="500"
   height="629.39386"
   id="svg2"
   xml:space="preserve"
   inkscape:version="0.48.4 r9939"
   sodipodi:docname="silhoutte_03.svg"><sodipodi:namedview
     pagecolor="#ffffff"
     bordercolor="#666666"
     borderopacity="1"
     objecttolerance="10"
     gridtolerance="10"
     guidetolerance="10"
     inkscape:pageopacity="0"
     inkscape:pageshadow="2"
     inkscape:window-width="1920"
     inkscape:window-height="1014"
     id="namedview77"
     showgrid="false"
     inkscape:zoom="1.1870832"
     inkscape:cx="82.337105"
     inkscape:cy="99.40332"
     inkscape:window-x="0"
     inkscape:window-y="27"
     inkscape:window-maximized="1"
     inkscape:current-layer="svg2"
     fit-margin-top="0"
     fit-margin-left="0"
     fit-margin-right="0"
     fit-margin-bottom="0" /><metadata
     id="metadata8"><rdf:RDF><cc:Work
         rdf:about=""><dc:format>image/svg+xml</dc:format><dc:type
           rdf:resource="http://purl.org/dc/dcmitype/StillImage" /><dc:title /></cc:Work></rdf:RDF></metadata><defs
     id="defs6"><clipPath
       id="clipPath18"><path
         d="m 0,4 8000,0 0,7996 L 0,8000 0,4 z"
         id="path20"
         inkscape:connector-curvature="0" /></clipPath><radialGradient
       cx="0"
       cy="0"
       r="1"
       fx="0"
       fy="0"
       id="radialGradient22"
       gradientUnits="userSpaceOnUse"
       gradientTransform="matrix(541.804,0,0,-541.804,400.083,400.497)"
       spreadMethod="pad"><stop
         id="stop24"
         style="stop-color:#f2f0f2;stop-opacity:1"
         offset="0" /><stop
         id="stop26"
         style="stop-color:#d0cfd2;stop-opacity:1"
         offset="1" /></radialGradient></defs><path
     d="m 493.18549,528.59682 c -1.30987,-20.3723 1.34154,-41.83682 -4.29369,-60.88343 -7.26961,-24.60269 -5.03373,-48.82546 -5.75791,-73.24215 -0.47884,-15.61165 -6.36338,-26.15396 -21.6624,-30.69696 -30.81567,-9.16517 -59.34798,-22.72296 -86.89491,-39.63261 -20.05573,-12.29541 -36.99703,-26.89793 -52.66408,-43.98566 -6.05866,-6.61664 -22.7467,-15.66308 -22.7467,-15.66308 0,0 10.64521,44.27453 2.56831,61.35435 -13.3639,28.29487 -56.81135,113.87992 -90.08454,179.11641 l 21.09254,-93.30975 c 0.15829,-0.74398 0.10687,-1.52753 -0.16621,-2.2359 l -12.87713,-33.36419 17.6378,-35.27163 c 0.59755,-1.19512 0.52633,-2.60788 -0.16621,-3.74364 -0.7044,-1.13574 -1.93909,-1.82432 -3.27666,-1.82432 l -21.48036,0 c 20.27732,-12.426 78.76262,-48.23582 86.8316,-52.88172 -14.68958,-54.97516 16.56536,-80.15166 16.56536,-80.15166 -0.3799,-0.64504 14.9864,-11.73346 17.44389,-22.57256 3.15003,-10.32072 4.08001,-19.86577 2.41001,-29.62454 -0.30867,-1.77684 -1.08431,-3.30832 -2.73451,-4.04834 -1.49982,-0.67274 -3.70801,-1.01308 -4.35306,0.37199 -0.11077,0.46301 -0.18203,0.74398 -0.18203,0.74398 0.0127,-0.29284 0.083,-0.53424 0.18203,-0.74398 1.70956,-7.19441 17.36869,-108.850162 -17.55468,-109.930517 -2.77013,-0.08711 -3.94941,-3.953361 -6.17344,-5.773731 -6.92135,-5.662933 -14.40069,-10.649153 -22.58445,-14.380923 -2.36647,-1.08034 -4.77648,-2.02219 -7.03215,-3.3558 -8.76548,-5.1801396 -18.21161,-8.2787296 -28.43734,-7.6178496 -5.95577,0.3799 -11.29024,-2.79387 -17.19062,-2.12904 -0.54611,0.0515 -1.51961,-0.36803 -1.67395,-0.79938 -1.10804,-2.90072998 -3.76341,-2.32690998 -5.6748,-2.16465998 -5.35425,0.43531 -10.60563,2.29920998 -16.07069,0.87060998 -0.32054,-0.0831 -0.75189,0.17413 -1.10805,0.31659 -5.1564,2.06968 -10.66499,1.95887 -16.05091,2.59996 -6.16155,0.73606 -12.31519,1.17136 -17.83566,4.76462 -4.42033,2.8730096 -9.17308,5.3107296 -14.01684,7.4120696 -2.39418,1.04077 -5.16431,1.5473 -7.04799,3.31623 -4.19478,3.95337 -9.50945,5.17618 -14.74104,6.08638 -4.04438,0.69648 -6.5652,2.94028 -8.28268,6.007207 -1.12389,1.982616 -5.41362,9.992244 -10.30091,16.783013 -0.58569,0.819169 -1.96284,8.567611 -1.63042,10.01995 0.30867,1.34548 0.58964,2.655362 0.66483,4.099783 0.20974,3.921703 -1.947,7.748442 -0.14642,11.737427 0.77168,1.717478 -0.55798,3.292485 -1.95096,4.329311 -1.78871,1.309869 -2.16862,3.015476 -2.09739,5.069327 0.16226,4.776495 0.7519,9.517366 0.96163,14.297813 0,0 -7.42789,90.69792 22.18872,145.79178 0,0 15.10511,29.26442 35.71485,41.33822 l -13.68047,11.95904 43.78383,38.2594 -15.76597,0 c -1.11597,0 -2.16862,0.47488 -2.90071,1.30988 -0.72816,0.83499 -1.06454,1.94699 -0.91415,3.04318 l 4.70921,35.29141 -22.03833,31.14019 c -0.41156,0.58965 -0.64901,1.2703 -0.68857,1.97867 l -6.06263,95.92158 c -7.69699,-50.46775 -15.69078,-111.925 -14.96264,-145.89467 1.39693,-47.8124 14.54712,-67.36158 14.54712,-67.36158 -19.05848,9.6717 -37.73704,19.74309 -56.973596,28.59563 -7.154843,3.28853 -15.560199,4.55883 -23.526293,5.2949 -25.817584,2.3823 -39.074619,10.83118 -44.555514,37.11178 -4.459904,21.35372 -3.347896,43.88277 -4.622155,65.89737 -0.534238,9.28388 -1.22677,18.58754 -1.151581,27.8833 0.09498,12.17273 0.906227,24.32964 1.349447,36.49445 0.150379,4.18685 1.02099,8.58343 0.0831,12.5368 -6.731403,28.18801 -13.830842,56.30481 -20.8590505,84.42159 -1.0289043,4.13541 -2.8255295,8.14813 -3.3835122,12.33499 C 1.6383323,610.56488 0.93392853,619.99518 0,629.39383 c 166.67062,0 333.32938,0 500,0 -2.28337,-33.59768 -4.65777,-67.1914 -6.81451,-100.79701"
     id="path98"
     style="fill:#696667;fill-opacity:1;fill-rule:evenodd;stroke:none"
     inkscape:connector-curvature="0" /></svg>