<?xml version="1.0" encoding="UTF-8" standalone="no"?>
<!-- Created with Inkscape (http://www.inkscape.org/) -->

<svg
   xmlns:dc="http://purl.org/dc/elements/1.1/"
   xmlns:cc="http://creativecommons.org/ns#"
   xmlns:rdf="http://www.w3.org/1999/02/22-rdf-syntax-ns#"
   xmlns:svg="http://www.w3.org/2000/svg"
   xmlns="http://www.w3.org/2000/svg"
   xmlns:sodipodi="http://sodipodi.sourceforge.net/DTD/sodipodi-0.dtd"
   xmlns:inkscape="http://www.inkscape.org/namespaces/inkscape"
   version="1.1"
   width="500"
   height="622.81702"
   id="svg2"
   xml:space="preserve"
   inkscape:version="0.48.4 r9939"
   sodipodi:docname="silhoutte_01.svg"><sodipodi:namedview
     pagecolor="#ffffff"
     bordercolor="#666666"
     borderopacity="1"
     objecttolerance="10"
     gridtolerance="10"
     guidetolerance="10"
     inkscape:pageopacity="0"
     inkscape:pageshadow="2"
     inkscape:window-width="1920"
     inkscape:window-height="1014"
     id="namedview77"
     showgrid="false"
     inkscape:zoom="1.1996365"
     inkscape:cx="82.300659"
     inkscape:cy="190.54925"
     inkscape:window-x="0"
     inkscape:window-y="27"
     inkscape:window-maximized="1"
     inkscape:current-layer="svg2"
     fit-margin-top="0"
     fit-margin-left="0"
     fit-margin-right="0"
     fit-margin-bottom="0" /><metadata
     id="metadata8"><rdf:RDF><cc:Work
         rdf:about=""><dc:format>image/svg+xml</dc:format><dc:type
           rdf:resource="http://purl.org/dc/dcmitype/StillImage" /><dc:title /></cc:Work></rdf:RDF></metadata><defs
     id="defs6"><clipPath
       id="clipPath18"><path
         d="m 0,4 8000,0 0,7996 L 0,8000 0,4 z"
         id="path20"
         inkscape:connector-curvature="0" /></clipPath><radialGradient
       cx="0"
       cy="0"
       r="1"
       fx="0"
       fy="0"
       id="radialGradient22"
       gradientUnits="userSpaceOnUse"
       gradientTransform="matrix(541.804,0,0,-541.804,400.083,400.497)"
       spreadMethod="pad"><stop
         id="stop24"
         style="stop-color:#f2f0f2;stop-opacity:1"
         offset="0" /><stop
         id="stop26"
         style="stop-color:#d0cfd2;stop-opacity:1"
         offset="1" /></radialGradient></defs><path
     d="m 497.11504,594.63647 c -0.56987,-4.18691 -2.35464,-8.19178 -3.39144,-12.33516 -7.02832,-28.12117 -14.12393,-56.23047 -20.85149,-84.42683 -0.94581,-3.94551 -0.075,-8.34216 0.0754,-12.52511 0.44718,-12.16896 1.25449,-24.33 1.35738,-36.49896 0.0713,-9.29193 -0.61339,-18.59574 -1.14766,-27.88371 -1.26638,-22.01494 -0.17033,-44.54432 -4.62619,-65.90231 -5.48886,-26.27704 -18.74214,-34.72605 -44.56406,-37.11236 -7.96626,-0.74002 -16.36775,-2.00243 -23.52665,-5.29893 -19.22893,-8.84871 -37.90778,-18.92026 -56.97049,-28.58814 0,0 13.15829,19.54947 14.54337,67.35862 0.77961,35.83808 -8.15616,102.25485 -16.22527,154.09656 L 334.22137,383.8583 c -0.0474,-0.71233 -0.28872,-1.40092 -0.69649,-1.97869 l -22.03078,-31.14065 4.70533,-35.29591 c 0.15039,-1.0962 -0.18995,-2.20821 -0.92603,-3.04322 -0.72816,-0.83105 -1.77686,-1.3099 -2.89285,-1.3099 l -7.83957,0 34.14432,-21.38965 c -0.42344,-0.37596 -1.52754,-22.55709 -2.4694,-25.56471 10.15068,-22.14155 13.62923,-28.62375 24.67824,-62.98572 2.48523,-7.71294 11.86424,3.89803 16.29255,-33.97809 0.53424,-4.59848 0.45509,-10.75616 -3.9376,-13.43136 5.1723,-11.10442 16.07094,-50.95131 5.27915,-77.837775 -3.84658,-9.549167 -7.48341,-11.804874 -17.00883,-16.561651 -0.7242,-0.356164 0.45114,-4.978388 1.62252,-5.469105 0,0 -6.41887,0.320551 -12.95647,-6.03501 1.99056,-0.29681 3.03136,-0.455105 4.51933,-0.676715 -2.2755,-1.772911 -3.63684,-2.045967 -6.48615,-4.004876 -0.90624,-0.613387 -1.67397,-0.791475 -1.96286,-1.899542 -0.6807,-2.580206 -3.11846,-5.279146 -4.33337,-6.288284 -1.87184,-1.551288 -4.32147,-2.279448 -5.64322,-4.713242 -1.49587,-2.746424 -3.4983,-5.168335 -5.9994,-7.281578 C 319.71358,14.00519 307.28344,9.1653 293.97873,6.28037 290.24296,5.46515 287.73002,7.6338 291.78238,4.2067 282.77141,7.40032 281.3982,3.22922 281.3982,1.74125 276.60977,6.53364 261.41737,0 261.41737,0 c 0,0 2.61583,4.87154 -2.49315,5.95191 -11.40914,2.41401 -20.69712,6.81461 -20.69712,6.81461 0,0 4.80031,3.36773 -3.39543,6.40701 -0.62526,0.23349 -3.82283,0.8073 -3.82283,0.8073 0,0 8.49255,1.20305 2.12906,2.67915 -7.87123,1.836227 -14.40091,5.053587 -20.72481,9.169262 -11.45267,7.459666 -7.49133,9.90137 -7.49133,9.90137 0,0 -10.52664,13.906245 -16.46272,20.376566 -4.85174,5.302901 -8.67854,18.987536 -8.67854,18.987536 0,0 2.31507,-2.532723 4.13152,-0.747954 -0.27702,5.837141 -8.05724,23.40002 -1.62649,55.87035 0.85875,4.33333 2.97594,13.39178 2.97594,13.39178 0,0 -12.18477,1.99849 -7.11932,21.58358 2.23197,8.64688 6.54947,17.19879 15.12907,22.32359 4.38479,2.62375 8.81705,19.89377 9.39484,21.96348 4.19482,14.95892 5.24353,30.81219 5.24353,30.81219 l -3.69224,22.30777 72.3845,42.49043 -13.27702,0 c -1.33363,0 -2.56834,0.68859 -3.2688,1.8204 -0.70441,1.13973 -0.75981,2.55647 -0.17017,3.74764 l 17.63807,35.27216 -12.87733,33.36075 c -0.27702,0.71233 -0.33242,1.49589 -0.16622,2.23987 l 26.00793,115.03719 C 256.9574,436.86746 211.91842,348.17062 198.25752,319.26985 c -8.07305,-17.08403 2.57626,-61.3632 2.57626,-61.3632 0,0 -16.68037,9.05054 -22.74308,15.66729 -15.67124,17.09194 -32.60885,31.69072 -52.6609,43.99027 -27.557244,16.9099 -56.091959,30.4679 -86.911667,39.62529 -15.293308,4.55495 -21.179917,15.09346 -21.646493,30.70138 -0.732907,24.42101 1.502224,48.64416 -5.773822,73.24325 C 5.4585459,480.18102 8.1171162,501.65378 6.8143455,522.0264 4.6606107,555.62459 2.2786616,589.22277 0,622.817 c 166.66166,0 333.32687,0 500,0 -0.92207,-9.39878 -1.6344,-18.82528 -2.88493,-28.18053"
     id="path96"
     style="fill:#696667;fill-opacity:1;fill-rule:evenodd;stroke:none"
     inkscape:connector-curvature="0" /></svg>